<?xml version="1.0" encoding="UTF-8" standalone="no"?><!DOCTYPE svg PUBLIC "-//W3C//DTD SVG 1.1//EN" "http://www.w3.org/Graphics/SVG/1.1/DTD/svg11.dtd"><svg width="100%" height="100%" viewBox="0 0 10630 6821" version="1.1" xmlns="http://www.w3.org/2000/svg" xmlns:xlink="http://www.w3.org/1999/xlink" xml:space="preserve" xmlns:serif="http://www.serif.com/" style="fill-rule:evenodd;clip-rule:evenodd;stroke-linejoin:round;stroke-miterlimit:2;"><rect id="vanityURLs-link-redirigé-dark" serif:id="vanityURLs-link redirigé-dark" x="0.624" y="2.393" width="10625" height="6816.67" style="fill:none;"/><g><g><path d="M1635.66,4322.22l2.4,92.4l3.6,-0l36,-94.8l164.4,-312l166.8,-0l-367.2,606l-91.2,-0l-117.6,-606l163.2,-0l39.6,314.4Z" style="fill:#0f766e;fill-rule:nonzero;"/><path d="M2409.66,4367.82c-6.4,30.4 -11,61.2 -13.8,92.4c-2.8,31.2 -4.2,60.8 -4.2,88.8c0,11.2 0.2,21.8 0.6,31.8c0.4,10 1,19.4 1.8,28.2l-109.2,-0l-16.8,-103.2l-4.8,-0c-8.8,14.4 -20.2,28.6 -34.2,42.6c-14,14 -29.4,26.8 -46.2,38.4c-16.8,11.6 -34.6,20.8 -53.4,27.6c-18.8,6.8 -38.2,10.2 -58.2,10.2c-52.8,-0 -91.8,-17.2 -117,-51.6c-25.2,-34.4 -37.8,-80.4 -37.8,-138c0,-58.4 7.4,-114.4 22.2,-168c14.8,-53.6 37.8,-100.8 69,-141.6c31.2,-40.8 70.6,-73.4 118.2,-97.8c47.6,-24.4 104.2,-36.6 169.8,-36.6c28,-0 58.6,2.6 91.8,7.8c33.2,5.2 65.4,12.2 96.6,21l-74.4,348Zm-282,133.2c14.4,-0 28,-3 40.8,-9c12.8,-6 24.6,-13.8 35.4,-23.4c10.8,-9.6 20.4,-20 28.8,-31.2c8.4,-11.2 15.8,-21.6 22.2,-31.2l60,-279.6c-8.8,-4 -19,-7 -30.6,-9c-11.6,-2 -23,-3 -34.2,-3c-28.8,-0 -54.4,8.6 -76.8,25.8c-22.4,17.2 -41.4,39.6 -57,67.2c-15.6,27.6 -27.4,58.8 -35.4,93.6c-8,34.8 -12,69.8 -12,105c0,25.6 4.2,47.8 12.6,66.6c8.4,18.8 23.8,28.2 46.2,28.2Z" style="fill:#0f766e;fill-rule:nonzero;"/><path d="M2803.26,4607.82l79.2,-372c4.8,-22.4 7.2,-42 7.2,-58.8c0,-17.6 -3.6,-31.4 -10.8,-41.4c-7.2,-10 -20.4,-15 -39.6,-15c-14.4,-0 -28.8,3.6 -43.2,10.8c-14.4,7.2 -28,16.8 -40.8,28.8c-12.8,12 -24.8,25.4 -36,40.2c-11.2,14.8 -20.8,29.8 -28.8,45l-76.8,362.4l-147.6,-0l127.2,-600l111.6,-0l-6,105.6l4.8,-0c10.4,-12.8 22.6,-26.4 36.6,-40.8c14,-14.4 30.2,-27.6 48.6,-39.6c18.4,-12 39,-22 61.8,-30c22.8,-8 48.6,-12 77.4,-12c36,-0 64.8,9.8 86.4,29.4c21.6,19.6 32.4,52.2 32.4,97.8c0,12 -0.6,24.8 -1.8,38.4c-1.2,13.6 -3.8,28.4 -7.8,44.4l-86.4,406.8l-147.6,-0Z" style="fill:#0f766e;fill-rule:nonzero;"/><path d="M3193.26,4007.82l147.6,-0l-127.2,600l-147.6,-0l127.2,-600Zm24,-170.4c0,-26.4 8.6,-46.8 25.8,-61.2c17.2,-14.4 39,-21.6 65.4,-21.6c25.6,-0 47.4,7.2 65.4,21.6c18,14.4 27,34.8 27,61.2c0,25.6 -9,45.8 -27,60.6c-18,14.8 -39.8,22.2 -65.4,22.2c-26.4,-0 -48.2,-7.4 -65.4,-22.2c-17.2,-14.8 -25.8,-35 -25.8,-60.6Z" style="fill:#0f766e;fill-rule:nonzero;"/><path d="M3405.66,4007.82l78,-0l24,-112.8l157.2,-44.4l-33.6,157.2l140.4,-0l-27.6,123.6l-139.2,-0l-58.8,271.2c-4.8,21.6 -7.2,39.2 -7.2,52.8c0,17.6 4,29.6 12,36c8,6.4 20,9.6 36,9.6c15.2,-0 29,-1.6 41.4,-4.8c12.4,-3.2 25.4,-8.4 39,-15.6l0,110.4c-8.8,4.8 -19.4,9.4 -31.8,13.8c-12.4,4.4 -25.8,8 -40.2,10.8c-14.4,2.8 -29.2,5 -44.4,6.6c-15.2,1.6 -29.2,2.4 -42,2.4c-40.8,-0 -72.2,-9.4 -94.2,-28.2c-22,-18.8 -33,-47.4 -33,-85.8c0,-8 0.6,-16.4 1.8,-25.2c1.2,-8.8 2.6,-18 4.2,-27.6l69.6,-326.4l-80.4,-0l28.8,-123.6Z" style="fill:#0f766e;fill-rule:nonzero;"/><path d="M4016.46,4345.02l1.2,93.6l7.2,-0l32.4,-94.8l163.2,-336l157.2,-0l-288,538.8c-24,44.8 -46.6,86 -67.8,123.6c-21.2,37.6 -42.6,70 -64.2,97.2c-21.6,27.2 -44,48.4 -67.2,63.6c-23.2,15.2 -48,22.8 -74.4,22.8c-35.2,-0 -61.6,-6 -79.2,-18l39.6,-117.6c4.8,2.4 9.8,4 15,4.8c5.2,0.8 10.2,1.2 15,1.2c19.2,-0 38.8,-9.2 58.8,-27.6c20,-18.4 40,-48 60,-88.8l-112.8,-600l169.2,-0l34.8,337.2Z" style="fill:#0f766e;fill-rule:nonzero;"/><path d="M4996.86,3767.82l146.4,-0l-114,542.4c-12,57.6 -27.6,106.2 -46.8,145.8c-19.2,39.6 -42.4,71.8 -69.6,96.6c-27.2,24.8 -59.2,42.6 -96,53.4c-36.8,10.8 -79.2,16.2 -127.2,16.2c-46.4,-0 -85.6,-5.4 -117.6,-16.2c-32,-10.8 -58.2,-26.2 -78.6,-46.2c-20.4,-20 -35.2,-43.6 -44.4,-70.8c-9.2,-27.2 -13.8,-57.2 -13.8,-90c0,-16 1,-32.4 3,-49.2c2,-16.8 5,-34.4 9,-52.8l112.8,-529.2l154.8,-0l-110.4,528c-6.4,30.4 -9.6,55.2 -9.6,74.4c0,38.4 10,65.6 30,81.6c20,16 49.2,24 87.6,24c48,-0 85.2,-14 111.6,-42c26.4,-28 46.4,-73.2 60,-135.6l112.8,-530.4Z" style="fill:#0f766e;fill-rule:nonzero;"/><path d="M5270.46,3776.22c38.4,-7.2 77.2,-12.4 116.4,-15.6c39.2,-3.2 74.4,-4.8 105.6,-4.8c36.8,-0 71.6,4.4 104.4,13.2c32.8,8.8 61.2,22.2 85.2,40.2c24,18 43,41.2 57,69.6c14,28.4 21,61.8 21,100.2c0,44 -6.6,82.2 -19.8,114.6c-13.2,32.4 -30.6,59.6 -52.2,81.6c-21.6,22 -46.2,39.2 -73.8,51.6c-27.6,12.4 -55.8,20.6 -84.6,24.6l46.8,37.2l116.4,319.2l-172.8,-0l-115.2,-328.8l-82.8,-15.6l-72,344.4l-156,-0l176.4,-831.6Zm75.6,375.6l63.6,-0c23.2,-0 46,-2.2 68.4,-6.6c22.4,-4.4 42.2,-12.4 59.4,-24c17.2,-11.6 31.2,-27 42,-46.2c10.8,-19.2 16.2,-43.6 16.2,-73.2c0,-27.2 -9.2,-50.6 -27.6,-70.2c-18.4,-19.6 -48,-29.4 -88.8,-29.4c-16,-0 -31,0.6 -45,1.8c-14,1.2 -25.8,2.6 -35.4,4.2l-52.8,243.6Z" style="fill:#0f766e;fill-rule:nonzero;"/><path d="M6288.06,4607.82l-505.2,-0l177.6,-840l156,-0l-147.6,693.6l349.2,-0l-30,146.4Z" style="fill:#0f766e;fill-rule:nonzero;"/><path d="M6386.46,4467.42c16,8.8 36.6,16.6 61.8,23.4c25.2,6.8 51.8,10.2 79.8,10.2c28,-0 49.4,-5.4 64.2,-16.2c14.8,-10.8 22.6,-27.4 23.4,-49.8c0,-16 -4.8,-29.8 -14.4,-41.4c-9.6,-11.6 -21.8,-22.6 -36.6,-33c-14.8,-10.4 -30.6,-21 -47.4,-31.8c-16.8,-10.8 -32.6,-23.2 -47.4,-37.2c-14.8,-14 -27,-30.6 -36.6,-49.8c-9.6,-19.2 -14.4,-42.4 -14.4,-69.6c0,-26.4 5.2,-50.8 15.6,-73.2c10.4,-22.4 25,-41.6 43.8,-57.6c18.8,-16 41.6,-28.4 68.4,-37.2c26.8,-8.8 57,-13.2 90.6,-13.2c46.4,-0 84.8,3.4 115.2,10.2c30.4,6.8 54.4,15.4 72,25.8l-40.8,112.8c-16,-7.2 -35.4,-13.2 -58.2,-18c-22.8,-4.8 -46.6,-7.2 -71.4,-7.2c-25.6,-0 -45.8,4.4 -60.6,13.2c-14.8,8.8 -22.2,22.8 -22.2,42c0,12.8 4.8,24.2 14.4,34.2c9.6,10 21.8,20.2 36.6,30.6c14.8,10.4 30.6,21 47.4,31.8c16.8,10.8 32.6,23.8 47.4,39c14.8,15.2 27,32.6 36.6,52.2c9.6,19.6 14.4,43 14.4,70.2c0,66.4 -21.6,115.8 -64.8,148.2c-43.2,32.4 -100.8,48.6 -172.8,48.6c-40.8,-0 -78.2,-3.8 -112.2,-11.4c-34,-7.6 -60.2,-17 -78.6,-28.2l46.8,-117.6Z" style="fill:#0f766e;fill-rule:nonzero;"/><path d="M6855.66,4528.62c0,-28 8.8,-50.2 26.4,-66.6c17.6,-16.4 40.8,-24.6 69.6,-24.6c29.6,-0 53.2,8.2 70.8,24.6c17.6,16.4 26.4,38.6 26.4,66.6c0,28 -8.8,50.4 -26.4,67.2c-17.6,16.8 -41.2,25.2 -70.8,25.2c-28.8,-0 -52,-8.4 -69.6,-25.2c-17.6,-16.8 -26.4,-39.2 -26.4,-67.2Z" style="fill:#14b8a6;fill-rule:nonzero;"/><path d="M7318.86,4430.22c-4.8,23.2 -4.6,40.4 0.6,51.6c5.2,11.2 13.8,16.8 25.8,16.8c22.4,-0 43.6,-4.4 63.6,-13.2l-3.6,106.8c-14.4,8.8 -35.2,16 -62.4,21.6c-27.2,5.6 -54,8.4 -80.4,8.4c-34.4,-0 -60.6,-6.6 -78.6,-19.8c-18,-13.2 -27,-37.8 -27,-73.8c0,-18.4 2.4,-39.6 7.2,-63.6l147.6,-697.2l147.6,-0l-140.4,662.4Z" style="fill:#0f766e;fill-rule:nonzero;"/><path d="M7603.26,4007.82l147.6,-0l-127.2,600l-147.6,-0l127.2,-600Zm24,-170.4c0,-26.4 8.6,-46.8 25.8,-61.2c17.2,-14.4 39,-21.6 65.4,-21.6c25.6,-0 47.4,7.2 65.4,21.6c18,14.4 27,34.8 27,61.2c0,25.6 -9,45.8 -27,60.6c-18,14.8 -39.8,22.2 -65.4,22.2c-26.4,-0 -48.2,-7.4 -65.4,-22.2c-17.2,-14.8 -25.8,-35 -25.8,-60.6Z" style="fill:#0f766e;fill-rule:nonzero;"/><path d="M8109.66,4607.82l79.2,-372c4.8,-22.4 7.2,-42 7.2,-58.8c0,-17.6 -3.6,-31.4 -10.8,-41.4c-7.2,-10 -20.4,-15 -39.6,-15c-14.4,-0 -28.8,3.6 -43.2,10.8c-14.4,7.2 -28,16.8 -40.8,28.8c-12.8,12 -24.8,25.4 -36,40.2c-11.2,14.8 -20.8,29.8 -28.8,45l-76.8,362.4l-147.6,-0l127.2,-600l111.6,-0l-6,105.6l4.8,-0c10.4,-12.8 22.6,-26.4 36.6,-40.8c14,-14.4 30.2,-27.6 48.6,-39.6c18.4,-12 39,-22 61.8,-30c22.8,-8 48.6,-12 77.4,-12c36,-0 64.8,9.8 86.4,29.4c21.6,19.6 32.4,52.2 32.4,97.8c0,12 -0.6,24.8 -1.8,38.4c-1.2,13.6 -3.8,28.4 -7.8,44.4l-86.4,406.8l-147.6,-0Z" style="fill:#0f766e;fill-rule:nonzero;"/><path d="M8644.86,4359.42l-48,-0l-51.6,248.4l-147.6,-0l177.6,-840l147.6,-0l-105.6,495.6l44.4,-15.6l169.2,-240l164.4,-0l-178.8,241.2l-72,45.6l54,45.6l91.2,267.6l-158.4,-0l-86.4,-248.4Z" style="fill:#0f766e;fill-rule:nonzero;"/></g></g><path id="Swoop" d="M6904.98,652.393c-2572.32,-0 -6336.76,1133.05 -6336.76,3026.55c-0,1307.54 1443.22,2489.49 4411.01,2489.49c2444.91,-0 5147.32,-992.83 5147.32,-2626.6c0,-1525.67 -1920.88,-2052.25 -3037.91,-2107.09l-0,524.561c1245.7,65.6 2727.88,676.962 2659.28,1668.35c-62.737,906.654 -1554.12,2090.15 -4828.12,2162.91c-2083.52,46.299 -4032.13,-904.418 -3984.55,-2026.48c45.312,-1068.68 2178.58,-2523.85 5882.4,-2590.33c979.523,-17.581 1612.68,191.61 1844.77,293.616l124.02,-657.537c-0,0 -725.195,-157.431 -1881.47,-157.431Z" style="fill:#14b8a6;fill-rule:nonzero;"/><g id="Redirigé"><path d="M2729.46,2748.63c-24.8,-8.8 -47.2,-13.2 -67.2,-13.2c-28,0 -51.4,7.4 -70.2,22.2c-18.8,14.8 -31.4,33.8 -37.8,57l0,387.6l-156,0l0,-600l121.2,0l18,79.2l4.8,0c13.6,-29.6 32,-52.4 55.2,-68.4c23.2,-16 50.4,-24 81.6,-24c20.8,0 44.4,4.4 70.8,13.2l-20.4,146.4Z" style="fill:#fff;fill-rule:nonzero;"/><path d="M3275.46,3150.63c-24,19.2 -56.6,35.4 -97.8,48.6c-41.2,13.2 -85,19.8 -131.4,19.8c-96.8,0 -167.6,-28.2 -212.4,-84.6c-44.8,-56.4 -67.2,-133.8 -67.2,-232.2c0,-105.6 25.2,-184.8 75.6,-237.6c50.4,-52.8 121.2,-79.2 212.4,-79.2c30.4,0 60,4 88.8,12c28.8,8 54.4,21.2 76.8,39.6c22.4,18.4 40.4,43.2 54,74.4c13.6,31.2 20.4,70 20.4,116.4c0,16.8 -1,34.8 -3,54c-2,19.2 -5,39.2 -9,60l-360,0c2.4,50.4 15.4,88.4 39,114c23.6,25.6 61.8,38.4 114.6,38.4c32.8,0 62.2,-5 88.2,-15c26,-10 45.8,-20.2 59.4,-30.6l51.6,102Zm-223.2,-440.4c-40.8,0 -71,12.2 -90.6,36.6c-19.6,24.4 -31.4,57 -35.4,97.8l223.2,0c3.2,-43.2 -3.4,-76.4 -19.8,-99.6c-16.4,-23.2 -42.2,-34.8 -77.4,-34.8Z" style="fill:#fff;fill-rule:nonzero;"/><path d="M3891.06,2991.03c0,33.6 0.4,67.2 1.2,100.8c0.8,33.6 4.4,70.8 10.8,111.6l-111.6,0l-21.6,-78l-4.8,0c-16,28 -39,50.6 -69,67.8c-30,17.2 -65.4,25.8 -106.2,25.8c-75.2,0 -133.6,-24.8 -175.2,-74.4c-41.6,-49.6 -62.4,-127.2 -62.4,-232.8c0,-102.4 23.2,-182 69.6,-238.8c46.4,-56.8 114.4,-85.2 204,-85.2c24.8,0 45.2,1.4 61.2,4.2c16,2.8 32,7.4 48,13.8l0,-243.6l156,0l0,628.8Zm-265.2,96c30.4,0 54.4,-7.4 72,-22.2c17.6,-14.8 30,-36.2 37.2,-64.2l0,-254.4c-11.2,-8.8 -23.6,-15.4 -37.2,-19.8c-13.6,-4.4 -31.2,-6.6 -52.8,-6.6c-44,0 -77,14.8 -99,44.4c-22,29.6 -33,80.4 -33,152.4c0,51.2 9,92.4 27,123.6c18,31.2 46.6,46.8 85.8,46.8Z" style="fill:#fff;fill-rule:nonzero;"/><path d="M4018.26,2602.23l156,0l0,600l-156,0l0,-600Zm-22.8,-169.2c0,-23.2 8.6,-43 25.8,-59.4c17.2,-16.4 41,-24.6 71.4,-24.6c30.4,0 55,8.2 73.8,24.6c18.8,16.4 28.2,36.2 28.2,59.4c0,23.2 -9.4,42.6 -28.2,58.2c-18.8,15.6 -43.4,23.4 -73.8,23.4c-30.4,0 -54.2,-7.8 -71.4,-23.4c-17.2,-15.6 -25.8,-35 -25.8,-58.2Z" style="fill:#fff;fill-rule:nonzero;"/><path d="M4633.86,2748.63c-24.8,-8.8 -47.2,-13.2 -67.2,-13.2c-28,0 -51.4,7.4 -70.2,22.2c-18.8,14.8 -31.4,33.8 -37.8,57l0,387.6l-156,0l0,-600l121.2,0l18,79.2l4.8,0c13.6,-29.6 32,-52.4 55.2,-68.4c23.2,-16 50.4,-24 81.6,-24c20.8,0 44.4,4.4 70.8,13.2l-20.4,146.4Z" style="fill:#fff;fill-rule:nonzero;"/><path d="M4714.26,2602.23l156,0l0,600l-156,0l0,-600Zm-22.8,-169.2c0,-23.2 8.6,-43 25.8,-59.4c17.2,-16.4 41,-24.6 71.4,-24.6c30.4,0 55,8.2 73.8,24.6c18.8,16.4 28.2,36.2 28.2,59.4c0,23.2 -9.4,42.6 -28.2,58.2c-18.8,15.6 -43.4,23.4 -73.8,23.4c-30.4,0 -54.2,-7.8 -71.4,-23.4c-17.2,-15.6 -25.8,-35 -25.8,-58.2Z" style="fill:#fff;fill-rule:nonzero;"/><path d="M5506.26,3202.23c0,87.2 -23.6,151.4 -70.8,192.6c-47.2,41.2 -113.2,61.8 -198,61.8c-57.6,0 -103,-4 -136.2,-12c-33.2,-8 -58.2,-16.4 -75,-25.2l32.4,-123.6c18.4,7.2 39.8,14.4 64.2,21.6c24.4,7.2 54.6,10.8 90.6,10.8c54.4,0 91.4,-11.8 111,-35.4c19.6,-23.6 29.4,-56.6 29.4,-99l0,-38.4l-4.8,0c-28,37.6 -77.6,56.4 -148.8,56.4c-77.6,0 -135.4,-24 -173.4,-72c-38,-48 -57,-123.2 -57,-225.6c0,-107.2 25.6,-188.4 76.8,-243.6c51.2,-55.2 125.6,-82.8 223.2,-82.8c51.2,0 97,3.6 137.4,10.8c40.4,7.2 73.4,15.6 99,25.2l0,578.4Zm-264,-115.2c30.4,0 53.8,-6.8 70.2,-20.4c16.4,-13.6 29,-34 37.8,-61.2l0,-270c-24.8,-10.4 -55.6,-15.6 -92.4,-15.6c-40,0 -71.2,15 -93.6,45c-22.4,30 -33.6,77.8 -33.6,143.4c0,58.4 9.6,102.8 28.8,133.2c19.2,30.4 46.8,45.6 82.8,45.6Z" style="fill:#fff;fill-rule:nonzero;"/><path d="M6097.86,3150.63c-24,19.2 -56.6,35.4 -97.8,48.6c-41.2,13.2 -85,19.8 -131.4,19.8c-96.8,0 -167.6,-28.2 -212.4,-84.6c-44.8,-56.4 -67.2,-133.8 -67.2,-232.2c0,-105.6 25.2,-184.8 75.6,-237.6c50.4,-52.8 121.2,-79.2 212.4,-79.2c30.4,0 60,4 88.8,12c28.8,8 54.4,21.2 76.8,39.6c22.4,18.4 40.4,43.2 54,74.4c13.6,31.2 20.4,70 20.4,116.4c0,16.8 -1,34.8 -3,54c-2,19.2 -5,39.2 -9,60l-360,0c2.4,50.4 15.4,88.4 39,114c23.6,25.6 61.8,38.4 114.6,38.4c32.8,0 62.2,-5 88.2,-15c26,-10 45.8,-20.2 59.4,-30.6l51.6,102Zm-223.2,-440.4c-40.8,0 -71,12.2 -90.6,36.6c-19.6,24.4 -31.4,57 -35.4,97.8l223.2,0c3.2,-43.2 -3.4,-76.4 -19.8,-99.6c-16.4,-23.2 -42.2,-34.8 -77.4,-34.8Zm3.6,-372l158.4,0l0,36l-133.2,148.8l-88.8,0l63.6,-184.8Z" style="fill:#fff;fill-rule:nonzero;"/><path d="M6483.06,2602.23l114,0l18,72l4.8,0c20.8,-30.4 45.4,-52.8 73.8,-67.2c28.4,-14.4 63,-21.6 103.8,-21.6c75.2,0 131.6,23.8 169.2,71.4c37.6,47.6 56.4,124.2 56.4,229.8c0,51.2 -6,97.4 -18,138.6c-12,41.2 -29.8,76.2 -53.4,105c-23.6,28.8 -52.4,50.8 -86.4,66c-34,15.2 -73,22.8 -117,22.8c-24.8,0 -45.2,-1.8 -61.2,-5.4c-16,-3.6 -32,-9.4 -48,-17.4l0,246l-156,0l0,-840Zm267.6,115.2c-30.4,0 -54.2,7.6 -71.4,22.8c-17.2,15.2 -30.6,38 -40.2,68.4l0,249.6c11.2,8.8 23.4,15.8 36.6,21c13.2,5.2 30.6,7.8 52.2,7.8c44.8,0 78.4,-15.8 100.8,-47.4c22.4,-31.6 33.6,-83.8 33.6,-156.6c0,-52.8 -8.8,-93.6 -26.4,-122.4c-17.6,-28.8 -46,-43.2 -85.2,-43.2Z" style="fill:#fff;fill-rule:nonzero;"/><path d="M7103.46,2637.03c32,-14.4 70,-25.8 114,-34.2c44,-8.4 90,-12.6 138,-12.6c41.6,0 76.4,5 104.4,15c28,10 50.2,24.2 66.6,42.6c16.4,18.4 28,40.4 34.8,66c6.8,25.6 10.2,54.4 10.2,86.4c0,35.2 -1.2,70.6 -3.6,106.2c-2.4,35.6 -3.8,70.6 -4.2,105c-0.4,34.4 0.6,67.8 3,100.2c2.4,32.4 8.4,63 18,91.8l-127.2,0l-25.2,-82.8l-6,0c-16,24.8 -38.2,46.2 -66.6,64.2c-28.4,18 -65,27 -109.8,27c-28,0 -53.2,-4.2 -75.6,-12.6c-22.4,-8.4 -41.6,-20.4 -57.6,-36c-16,-15.6 -28.4,-34 -37.2,-55.2c-8.8,-21.2 -13.2,-45 -13.2,-71.4c0,-36.8 8.2,-67.8 24.6,-93c16.4,-25.2 40,-45.6 70.8,-61.2c30.8,-15.6 67.6,-26.4 110.4,-32.4c42.8,-6 90.6,-7.8 143.4,-5.4c5.6,-44.8 2.4,-77 -9.6,-96.6c-12,-19.6 -38.8,-29.4 -80.4,-29.4c-31.2,0 -64.2,3.2 -99,9.6c-34.8,6.4 -63.4,14.8 -85.8,25.2l-37.2,-116.4Zm198,446.4c31.2,0 56,-7 74.4,-21c18.4,-14 32,-29 40.8,-45l0,-78c-24.8,-2.4 -48.6,-2.8 -71.4,-1.2c-22.8,1.6 -43,5.2 -60.6,10.8c-17.6,5.6 -31.6,13.6 -42,24c-10.4,10.4 -15.6,23.6 -15.6,39.6c0,22.4 6.6,39.8 19.8,52.2c13.2,12.4 31.4,18.6 54.6,18.6Z" style="fill:#fff;fill-rule:nonzero;"/><path d="M8009.46,2748.63c-24.8,-8.8 -47.2,-13.2 -67.2,-13.2c-28,0 -51.4,7.4 -70.2,22.2c-18.8,14.8 -31.4,33.8 -37.8,57l0,387.6l-156,0l0,-600l121.2,0l18,79.2l4.8,0c13.6,-29.6 32,-52.4 55.2,-68.4c23.2,-16 50.4,-24 81.6,-24c20.8,0 44.4,4.4 70.8,13.2l-20.4,146.4Z" style="fill:#fff;fill-rule:nonzero;"/></g></svg>