<?xml version="1.0" encoding="UTF-8" standalone="no"?><!DOCTYPE svg PUBLIC "-//W3C//DTD SVG 1.1//EN" "http://www.w3.org/Graphics/SVG/1.1/DTD/svg11.dtd"><svg width="100%" height="100%" viewBox="0 0 10630 6821" version="1.1" xmlns="http://www.w3.org/2000/svg" xmlns:xlink="http://www.w3.org/1999/xlink" xml:space="preserve" xmlns:serif="http://www.serif.com/" style="fill-rule:evenodd;clip-rule:evenodd;stroke-linejoin:round;stroke-miterlimit:2;"><g><g><g><g><path d="M1636.4,4323.91l2.4,92.4l3.6,-0l36,-94.8l164.4,-312l166.8,-0l-367.2,606l-91.2,-0l-117.6,-606l163.2,-0l39.6,314.4Z" style="fill:#0f766e;fill-rule:nonzero;"/><path d="M2410.41,4369.51c-6.4,30.4 -11,61.2 -13.8,92.4c-2.8,31.2 -4.2,60.8 -4.2,88.8c0,11.2 0.2,21.8 0.6,31.8c0.4,10 1,19.4 1.8,28.2l-109.2,-0l-16.8,-103.2l-4.8,-0c-8.8,14.4 -20.2,28.6 -34.2,42.6c-14,14 -29.4,26.8 -46.2,38.4c-16.8,11.6 -34.6,20.8 -53.4,27.6c-18.8,6.8 -38.2,10.2 -58.2,10.2c-52.8,-0 -91.8,-17.2 -117,-51.6c-25.2,-34.4 -37.8,-80.4 -37.8,-138c0,-58.4 7.4,-114.4 22.2,-168c14.8,-53.6 37.8,-100.8 69,-141.6c31.2,-40.8 70.6,-73.4 118.2,-97.8c47.6,-24.4 104.2,-36.6 169.8,-36.6c28,-0 58.6,2.6 91.8,7.8c33.2,5.2 65.4,12.2 96.6,21l-74.4,348Zm-282,133.2c14.4,-0 28,-3 40.8,-9c12.8,-6 24.6,-13.8 35.4,-23.4c10.8,-9.6 20.4,-20 28.8,-31.2c8.4,-11.2 15.8,-21.6 22.2,-31.2l60,-279.6c-8.8,-4 -19,-7 -30.6,-9c-11.6,-2 -23,-3 -34.2,-3c-28.8,-0 -54.4,8.6 -76.8,25.8c-22.4,17.2 -41.4,39.6 -57,67.2c-15.6,27.6 -27.4,58.8 -35.4,93.6c-8,34.8 -12,69.8 -12,105c0,25.6 4.2,47.8 12.6,66.6c8.4,18.8 23.8,28.2 46.2,28.2Z" style="fill:#0f766e;fill-rule:nonzero;"/><path d="M2804.01,4609.51l79.2,-372c4.8,-22.4 7.2,-42 7.2,-58.8c0,-17.6 -3.6,-31.4 -10.8,-41.4c-7.2,-10 -20.4,-15 -39.6,-15c-14.4,-0 -28.8,3.6 -43.2,10.8c-14.4,7.2 -28,16.8 -40.8,28.8c-12.8,12 -24.8,25.4 -36,40.2c-11.2,14.8 -20.8,29.8 -28.8,45l-76.8,362.4l-147.6,-0l127.2,-600l111.6,-0l-6,105.6l4.8,-0c10.4,-12.8 22.6,-26.4 36.6,-40.8c14,-14.4 30.2,-27.6 48.6,-39.6c18.4,-12 39,-22 61.8,-30c22.8,-8 48.6,-12 77.4,-12c36,-0 64.8,9.8 86.4,29.4c21.6,19.6 32.4,52.2 32.4,97.8c0,12 -0.6,24.8 -1.8,38.4c-1.2,13.6 -3.8,28.4 -7.8,44.4l-86.4,406.8l-147.6,-0Z" style="fill:#0f766e;fill-rule:nonzero;"/><path d="M3194.01,4009.51l147.6,-0l-127.2,600l-147.6,-0l127.2,-600Zm24,-170.4c0,-26.4 8.6,-46.8 25.8,-61.2c17.2,-14.4 39,-21.6 65.4,-21.6c25.6,-0 47.4,7.2 65.4,21.6c18,14.4 27,34.8 27,61.2c0,25.6 -9,45.8 -27,60.6c-18,14.8 -39.8,22.2 -65.4,22.2c-26.4,-0 -48.2,-7.4 -65.4,-22.2c-17.2,-14.8 -25.8,-35 -25.8,-60.6Z" style="fill:#0f766e;fill-rule:nonzero;"/><path d="M3406.41,4009.51l78,-0l24,-112.8l157.2,-44.4l-33.6,157.2l140.4,-0l-27.6,123.6l-139.2,-0l-58.8,271.2c-4.8,21.6 -7.2,39.2 -7.2,52.8c0,17.6 4,29.6 12,36c8,6.4 20,9.6 36,9.6c15.2,-0 29,-1.6 41.4,-4.8c12.4,-3.2 25.4,-8.4 39,-15.6l0,110.4c-8.8,4.8 -19.4,9.4 -31.8,13.8c-12.4,4.4 -25.8,8 -40.2,10.8c-14.4,2.8 -29.2,5 -44.4,6.6c-15.2,1.6 -29.2,2.4 -42,2.4c-40.8,-0 -72.2,-9.4 -94.2,-28.2c-22,-18.8 -33,-47.4 -33,-85.8c0,-8 0.6,-16.4 1.8,-25.2c1.2,-8.8 2.6,-18 4.2,-27.6l69.6,-326.4l-80.4,-0l28.8,-123.6Z" style="fill:#0f766e;fill-rule:nonzero;"/><path d="M4017.2,4346.71l1.2,93.6l7.2,-0l32.4,-94.8l163.2,-336l157.2,-0l-288,538.8c-24,44.8 -46.6,86 -67.8,123.6c-21.2,37.6 -42.6,70 -64.2,97.2c-21.6,27.2 -44,48.4 -67.2,63.6c-23.2,15.2 -48,22.8 -74.4,22.8c-35.2,-0 -61.6,-6 -79.2,-18l39.6,-117.6c4.8,2.4 9.8,4 15,4.8c5.2,0.8 10.2,1.2 15,1.2c19.2,-0 38.8,-9.2 58.8,-27.6c20,-18.4 40,-48 60,-88.8l-112.8,-600l169.2,-0l34.8,337.2Z" style="fill:#0f766e;fill-rule:nonzero;"/><path d="M4997.61,3769.51l146.4,-0l-114,542.4c-12,57.6 -27.6,106.2 -46.8,145.8c-19.2,39.6 -42.4,71.8 -69.6,96.6c-27.2,24.8 -59.2,42.6 -96,53.4c-36.8,10.8 -79.2,16.2 -127.2,16.2c-46.4,-0 -85.6,-5.4 -117.6,-16.2c-32,-10.8 -58.2,-26.2 -78.6,-46.2c-20.4,-20 -35.2,-43.6 -44.4,-70.8c-9.2,-27.2 -13.8,-57.2 -13.8,-90c0,-16 1,-32.4 3,-49.2c2,-16.8 5,-34.4 9,-52.8l112.8,-529.2l154.8,-0l-110.4,528c-6.4,30.4 -9.6,55.2 -9.6,74.4c0,38.4 10,65.6 30,81.6c20,16 49.2,24 87.6,24c48,-0 85.2,-14 111.6,-42c26.4,-28 46.4,-73.2 60,-135.6l112.8,-530.4Z" style="fill:#0f766e;fill-rule:nonzero;"/><path d="M5271.2,3777.91c38.4,-7.2 77.2,-12.4 116.4,-15.6c39.2,-3.2 74.4,-4.8 105.6,-4.8c36.8,-0 71.6,4.4 104.4,13.2c32.8,8.8 61.2,22.2 85.2,40.2c24,18 43,41.2 57,69.6c14,28.4 21,61.8 21,100.2c0,44 -6.6,82.2 -19.8,114.6c-13.2,32.4 -30.6,59.6 -52.2,81.6c-21.6,22 -46.2,39.2 -73.8,51.6c-27.6,12.4 -55.8,20.6 -84.6,24.6l46.8,37.2l116.4,319.2l-172.8,-0l-115.2,-328.8l-82.8,-15.6l-72,344.4l-156,-0l176.4,-831.6Zm75.6,375.6l63.6,-0c23.2,-0 46,-2.2 68.4,-6.6c22.4,-4.4 42.2,-12.4 59.4,-24c17.2,-11.6 31.2,-27 42,-46.2c10.8,-19.2 16.2,-43.6 16.2,-73.2c0,-27.2 -9.2,-50.6 -27.6,-70.2c-18.4,-19.6 -48,-29.4 -88.8,-29.4c-16,-0 -31,0.6 -45,1.8c-14,1.2 -25.8,2.6 -35.4,4.2l-52.8,243.6Z" style="fill:#0f766e;fill-rule:nonzero;"/><path d="M6288.81,4609.51l-505.2,-0l177.6,-840l156,-0l-147.6,693.6l349.2,-0l-30,146.4Z" style="fill:#0f766e;fill-rule:nonzero;"/><path d="M6387.2,4469.11c16,8.8 36.6,16.6 61.8,23.4c25.2,6.8 51.8,10.2 79.8,10.2c28,-0 49.4,-5.4 64.2,-16.2c14.8,-10.8 22.6,-27.4 23.4,-49.8c0,-16 -4.8,-29.8 -14.4,-41.4c-9.6,-11.6 -21.8,-22.6 -36.6,-33c-14.8,-10.4 -30.6,-21 -47.4,-31.8c-16.8,-10.8 -32.6,-23.2 -47.4,-37.2c-14.8,-14 -27,-30.6 -36.6,-49.8c-9.6,-19.2 -14.4,-42.4 -14.4,-69.6c0,-26.4 5.2,-50.8 15.6,-73.2c10.4,-22.4 25,-41.6 43.8,-57.6c18.8,-16 41.6,-28.4 68.4,-37.2c26.8,-8.8 57,-13.2 90.6,-13.2c46.4,-0 84.8,3.4 115.2,10.2c30.4,6.8 54.4,15.4 72,25.8l-40.8,112.8c-16,-7.2 -35.4,-13.2 -58.2,-18c-22.8,-4.8 -46.6,-7.2 -71.4,-7.2c-25.6,-0 -45.8,4.4 -60.6,13.2c-14.8,8.8 -22.2,22.8 -22.2,42c0,12.8 4.8,24.2 14.4,34.2c9.6,10 21.8,20.2 36.6,30.6c14.8,10.4 30.6,21 47.4,31.8c16.8,10.8 32.6,23.8 47.4,39c14.8,15.2 27,32.6 36.6,52.2c9.6,19.6 14.4,43 14.4,70.2c0,66.4 -21.6,115.8 -64.8,148.2c-43.2,32.4 -100.8,48.6 -172.8,48.6c-40.8,-0 -78.2,-3.8 -112.2,-11.4c-34,-7.6 -60.2,-17 -78.6,-28.2l46.8,-117.6Z" style="fill:#0f766e;fill-rule:nonzero;"/><path d="M6856.4,4530.31c0,-28 8.8,-50.2 26.4,-66.6c17.6,-16.4 40.8,-24.6 69.6,-24.6c29.6,-0 53.2,8.2 70.8,24.6c17.6,16.4 26.4,38.6 26.4,66.6c0,28 -8.8,50.4 -26.4,67.2c-17.6,16.8 -41.2,25.2 -70.8,25.2c-28.8,-0 -52,-8.4 -69.6,-25.2c-17.6,-16.8 -26.4,-39.2 -26.4,-67.2Z" style="fill:#14b8a6;fill-rule:nonzero;"/><path d="M7319.61,4431.91c-4.8,23.2 -4.6,40.4 0.6,51.6c5.2,11.2 13.8,16.8 25.8,16.8c22.4,-0 43.6,-4.4 63.6,-13.2l-3.6,106.8c-14.4,8.8 -35.2,16 -62.4,21.6c-27.2,5.6 -54,8.4 -80.4,8.4c-34.4,-0 -60.6,-6.6 -78.6,-19.8c-18,-13.2 -27,-37.8 -27,-73.8c0,-18.4 2.4,-39.6 7.2,-63.6l147.6,-697.2l147.6,-0l-140.4,662.4Z" style="fill:#0f766e;fill-rule:nonzero;"/><path d="M7604.01,4009.51l147.6,-0l-127.2,600l-147.6,-0l127.2,-600Zm24,-170.4c0,-26.4 8.6,-46.8 25.8,-61.2c17.2,-14.4 39,-21.6 65.4,-21.6c25.6,-0 47.4,7.2 65.4,21.6c18,14.4 27,34.8 27,61.2c0,25.6 -9,45.8 -27,60.6c-18,14.8 -39.8,22.2 -65.4,22.2c-26.4,-0 -48.2,-7.4 -65.4,-22.2c-17.2,-14.8 -25.8,-35 -25.8,-60.6Z" style="fill:#0f766e;fill-rule:nonzero;"/><path d="M8110.4,4609.51l79.2,-372c4.8,-22.4 7.2,-42 7.2,-58.8c0,-17.6 -3.6,-31.4 -10.8,-41.4c-7.2,-10 -20.4,-15 -39.6,-15c-14.4,-0 -28.8,3.6 -43.2,10.8c-14.4,7.2 -28,16.8 -40.8,28.8c-12.8,12 -24.8,25.4 -36,40.2c-11.2,14.8 -20.8,29.8 -28.8,45l-76.8,362.4l-147.6,-0l127.2,-600l111.6,-0l-6,105.6l4.8,-0c10.4,-12.8 22.6,-26.4 36.6,-40.8c14,-14.4 30.2,-27.6 48.6,-39.6c18.4,-12 39,-22 61.8,-30c22.8,-8 48.6,-12 77.4,-12c36,-0 64.8,9.8 86.4,29.4c21.6,19.6 32.4,52.2 32.4,97.8c0,12 -0.6,24.8 -1.8,38.4c-1.2,13.6 -3.8,28.4 -7.8,44.4l-86.4,406.8l-147.6,-0Z" style="fill:#0f766e;fill-rule:nonzero;"/><path d="M8645.6,4361.11l-48,-0l-51.6,248.4l-147.6,-0l177.6,-840l147.6,-0l-105.6,495.6l44.4,-15.6l169.2,-240l164.4,-0l-178.8,241.2l-72,45.6l54,45.6l91.2,267.6l-158.4,-0l-86.4,-248.4Z" style="fill:#0f766e;fill-rule:nonzero;"/></g></g><g><path d="M2300.12,2739.39c-24.8,-8.8 -47.2,-13.2 -67.2,-13.2c-28,-0 -51.4,7.4 -70.2,22.2c-18.8,14.8 -31.4,33.8 -37.8,57l-0,387.6l-156,-0l-0,-600l121.2,-0l18,79.2l4.8,-0c13.6,-29.6 32,-52.4 55.2,-68.4c23.2,-16 50.4,-24 81.6,-24c20.8,-0 44.4,4.4 70.8,13.2l-20.4,146.4Z" style="fill:#111827;fill-rule:nonzero;"/><path d="M2846.12,3141.39c-24,19.2 -56.6,35.4 -97.8,48.6c-41.2,13.2 -85,19.8 -131.4,19.8c-96.8,-0 -167.6,-28.2 -212.4,-84.6c-44.8,-56.4 -67.2,-133.8 -67.2,-232.2c-0,-105.6 25.2,-184.8 75.6,-237.6c50.4,-52.8 121.2,-79.2 212.4,-79.2c30.4,-0 60,4 88.8,12c28.8,8 54.4,21.2 76.8,39.6c22.4,18.4 40.4,43.2 54,74.4c13.6,31.2 20.4,70 20.4,116.4c-0,16.8 -1,34.8 -3,54c-2,19.2 -5,39.2 -9,60l-360,-0c2.4,50.4 15.4,88.4 39,114c23.6,25.6 61.8,38.4 114.6,38.4c32.8,-0 62.2,-5 88.2,-15c26,-10 45.8,-20.2 59.4,-30.6l51.6,102Zm-223.2,-440.4c-40.8,-0 -71,12.2 -90.6,36.6c-19.6,24.4 -31.4,57 -35.4,97.8l223.2,-0c3.2,-43.2 -3.4,-76.4 -19.8,-99.6c-16.4,-23.2 -42.2,-34.8 -77.4,-34.8Z" style="fill:#111827;fill-rule:nonzero;"/><path d="M3461.72,2981.79c-0,33.6 0.4,67.2 1.2,100.8c0.8,33.6 4.4,70.8 10.8,111.6l-111.6,-0l-21.6,-78l-4.8,-0c-16,28 -39,50.6 -69,67.8c-30,17.2 -65.4,25.8 -106.2,25.8c-75.2,-0 -133.6,-24.8 -175.2,-74.4c-41.6,-49.6 -62.4,-127.2 -62.4,-232.8c-0,-102.4 23.2,-182 69.6,-238.8c46.4,-56.8 114.4,-85.2 204,-85.2c24.8,-0 45.2,1.4 61.2,4.2c16,2.8 32,7.4 48,13.8l-0,-243.6l156,-0l-0,628.8Zm-265.2,96c30.4,-0 54.4,-7.4 72,-22.2c17.6,-14.8 30,-36.2 37.2,-64.2l-0,-254.4c-11.2,-8.8 -23.6,-15.4 -37.2,-19.8c-13.6,-4.4 -31.2,-6.6 -52.8,-6.6c-44,-0 -77,14.8 -99,44.4c-22,29.6 -33,80.4 -33,152.4c-0,51.2 9,92.4 27,123.6c18,31.2 46.6,46.8 85.8,46.8Z" style="fill:#111827;fill-rule:nonzero;"/><path d="M3588.92,2592.99l156,-0l-0,600l-156,-0l-0,-600Zm-22.8,-169.2c-0,-23.2 8.6,-43 25.8,-59.4c17.2,-16.4 41,-24.6 71.4,-24.6c30.4,-0 55,8.2 73.8,24.6c18.8,16.4 28.2,36.2 28.2,59.4c-0,23.2 -9.4,42.6 -28.2,58.2c-18.8,15.6 -43.4,23.4 -73.8,23.4c-30.4,-0 -54.2,-7.8 -71.4,-23.4c-17.2,-15.6 -25.8,-35 -25.8,-58.2Z" style="fill:#111827;fill-rule:nonzero;"/><path d="M4204.52,2739.39c-24.8,-8.8 -47.2,-13.2 -67.2,-13.2c-28,-0 -51.4,7.4 -70.2,22.2c-18.8,14.8 -31.4,33.8 -37.8,57l-0,387.6l-156,-0l-0,-600l121.2,-0l18,79.2l4.8,-0c13.6,-29.6 32,-52.4 55.2,-68.4c23.2,-16 50.4,-24 81.6,-24c20.8,-0 44.4,4.4 70.8,13.2l-20.4,146.4Z" style="fill:#111827;fill-rule:nonzero;"/><path d="M4750.52,3141.39c-24,19.2 -56.6,35.4 -97.8,48.6c-41.2,13.2 -85,19.8 -131.4,19.8c-96.8,-0 -167.6,-28.2 -212.4,-84.6c-44.8,-56.4 -67.2,-133.8 -67.2,-232.2c-0,-105.6 25.2,-184.8 75.6,-237.6c50.4,-52.8 121.2,-79.2 212.4,-79.2c30.4,-0 60,4 88.8,12c28.8,8 54.4,21.2 76.8,39.6c22.4,18.4 40.4,43.2 54,74.4c13.6,31.2 20.4,70 20.4,116.4c-0,16.8 -1,34.8 -3,54c-2,19.2 -5,39.2 -9,60l-360,-0c2.4,50.4 15.4,88.4 39,114c23.6,25.6 61.8,38.4 114.6,38.4c32.8,-0 62.2,-5 88.2,-15c26,-10 45.8,-20.2 59.4,-30.6l51.6,102Zm-223.2,-440.4c-40.8,-0 -71,12.2 -90.6,36.6c-19.6,24.4 -31.4,57 -35.4,97.8l223.2,-0c3.2,-43.2 -3.4,-76.4 -19.8,-99.6c-16.4,-23.2 -42.2,-34.8 -77.4,-34.8Z" style="fill:#111827;fill-rule:nonzero;"/><path d="M5274.92,3155.79c-24,17.6 -53,31 -87,40.2c-34,9.2 -69,13.8 -105,13.8c-48,-0 -88.6,-7.6 -121.8,-22.8c-33.2,-15.2 -60.2,-36.6 -81,-64.2c-20.8,-27.6 -35.8,-61 -45,-100.2c-9.2,-39.2 -13.8,-82.4 -13.8,-129.6c-0,-101.6 22.8,-179.8 68.4,-234.6c45.6,-54.8 112,-82.2 199.2,-82.2c44,-0 79.4,3.6 106.2,10.8c26.8,7.2 51,16.4 72.6,27.6l-37.2,127.2c-18.4,-8.8 -36.6,-15.6 -54.6,-20.4c-18,-4.8 -38.6,-7.2 -61.8,-7.2c-43.2,-0 -76,14.2 -98.4,42.6c-22.4,28.4 -33.6,73.8 -33.6,136.2c-0,25.6 2.8,49.2 8.4,70.8c5.6,21.6 14,40.4 25.2,56.4c11.2,16 25.8,28.6 43.8,37.8c18,9.2 39,13.8 63,13.8c26.4,-0 48.8,-3.4 67.2,-10.2c18.4,-6.8 34.8,-15 49.2,-24.6l36,118.8Z" style="fill:#111827;fill-rule:nonzero;"/><path d="M5283.32,2592.99l82.8,-0l-0,-112.8l156,-44.4l-0,157.2l146.4,-0l-0,132l-146.4,-0l-0,230.4c-0,41.6 4.2,71.4 12.6,89.4c8.4,18 24.2,27 47.4,27c16,-0 29.8,-1.6 41.4,-4.8c11.6,-3.2 24.6,-8 39,-14.4l27.6,120c-21.6,10.4 -46.8,19.2 -75.6,26.4c-28.8,7.2 -58,10.8 -87.6,10.8c-55.2,-0 -95.8,-14.2 -121.8,-42.6c-26,-28.4 -39,-75 -39,-139.8l-0,-302.4l-82.8,-0l-0,-132Z" style="fill:#111827;fill-rule:nonzero;"/><path d="M6214.52,3141.39c-24,19.2 -56.6,35.4 -97.8,48.6c-41.2,13.2 -85,19.8 -131.4,19.8c-96.8,-0 -167.6,-28.2 -212.4,-84.6c-44.8,-56.4 -67.2,-133.8 -67.2,-232.2c-0,-105.6 25.2,-184.8 75.6,-237.6c50.4,-52.8 121.2,-79.2 212.4,-79.2c30.4,-0 60,4 88.8,12c28.8,8 54.4,21.2 76.8,39.6c22.4,18.4 40.4,43.2 54,74.4c13.6,31.2 20.4,70 20.4,116.4c-0,16.8 -1,34.8 -3,54c-2,19.2 -5,39.2 -9,60l-360,-0c2.4,50.4 15.4,88.4 39,114c23.6,25.6 61.8,38.4 114.6,38.4c32.8,-0 62.2,-5 88.2,-15c26,-10 45.8,-20.2 59.4,-30.6l51.6,102Zm-223.2,-440.4c-40.8,-0 -71,12.2 -90.6,36.6c-19.6,24.4 -31.4,57 -35.4,97.8l223.2,-0c3.2,-43.2 -3.4,-76.4 -19.8,-99.6c-16.4,-23.2 -42.2,-34.8 -77.4,-34.8Z" style="fill:#111827;fill-rule:nonzero;"/><path d="M6830.12,2981.79c-0,33.6 0.4,67.2 1.2,100.8c0.8,33.6 4.4,70.8 10.8,111.6l-111.6,-0l-21.6,-78l-4.8,-0c-16,28 -39,50.6 -69,67.8c-30,17.2 -65.4,25.8 -106.2,25.8c-75.2,-0 -133.6,-24.8 -175.2,-74.4c-41.6,-49.6 -62.4,-127.2 -62.4,-232.8c-0,-102.4 23.2,-182 69.6,-238.8c46.4,-56.8 114.4,-85.2 204,-85.2c24.8,-0 45.2,1.4 61.2,4.2c16,2.8 32,7.4 48,13.8l-0,-243.6l156,-0l-0,628.8Zm-265.2,96c30.4,-0 54.4,-7.4 72,-22.2c17.6,-14.8 30,-36.2 37.2,-64.2l-0,-254.4c-11.2,-8.8 -23.6,-15.4 -37.2,-19.8c-13.6,-4.4 -31.2,-6.6 -52.8,-6.6c-44,-0 -77,14.8 -99,44.4c-22,29.6 -33,80.4 -33,152.4c-0,51.2 9,92.4 27,123.6c18,31.2 46.6,46.8 85.8,46.8Z" style="fill:#111827;fill-rule:nonzero;"/><path d="M7222.52,2352.99l156,-0l-0,288l4.8,-0c16.8,-19.2 38.4,-34.4 64.8,-45.6c26.4,-11.2 55.6,-16.8 87.6,-16.8c72,-0 127,24.6 165,73.8c38,49.2 57,124.2 57,225c-0,108 -26.6,190 -79.8,246c-53.2,56 -126.2,84 -219,84c-51.2,-0 -98,-4.2 -140.4,-12.6c-42.4,-8.4 -74.4,-17.8 -96,-28.2l-0,-813.6Zm267.6,357.6c-28.8,-0 -52.2,7.4 -70.2,22.2c-18,14.8 -31.8,36.2 -41.4,64.2l-0,261.6c12.8,6.4 26.6,10.8 41.4,13.2c14.8,2.4 30.6,3.6 47.4,3.6c42.4,-0 74.6,-15.4 96.6,-46.2c22,-30.8 33,-79.8 33,-147c-0,-114.4 -35.6,-171.6 -106.8,-171.6Z" style="fill:#111827;fill-rule:nonzero;"/><path d="M8045.72,2930.19l21.6,93.6l7.2,-0l15.6,-94.8l91.2,-336l160.8,-0l-182.4,541.2c-15.2,44.8 -29.8,85.8 -43.8,123c-14,37.2 -29.4,69.4 -46.2,96.6c-16.8,27.2 -35.4,48.2 -55.8,63c-20.4,14.8 -44.6,22.2 -72.6,22.2c-41.6,-0 -74.8,-6.8 -99.6,-20.4l28.8,-124.8c12,4.8 24,7.2 36,7.2c18.4,-0 36.2,-7.8 53.4,-23.4c17.2,-15.6 30.2,-43.8 39,-84.6l-250.8,-600l187.2,-0l110.4,337.2Z" style="fill:#111827;fill-rule:nonzero;"/></g></g></g><g id="Swoop"><path id="path830" d="M6905.73,654.076c-2572.32,-0 -6336.76,1133.05 -6336.76,3026.55c-0,1307.54 1443.22,2489.49 4411.01,2489.49c2444.91,-0 5147.32,-992.83 5147.32,-2626.6c0,-1525.67 -1920.88,-2052.25 -3037.91,-2107.09l0,524.561c1245.7,65.6 2727.88,676.962 2659.28,1668.35c-62.737,906.654 -1554.12,2090.15 -4828.12,2162.91c-2083.52,46.299 -4032.13,-904.418 -3984.55,-2026.48c45.312,-1068.68 2178.58,-2523.85 5882.4,-2590.33c979.524,-17.581 1612.68,191.61 1844.77,293.616l124.02,-657.537c-0,0 -725.195,-157.431 -1881.47,-157.431Z" style="fill:#14b8a6;fill-rule:nonzero;"/></g></svg>