<?xml version="1.0" encoding="UTF-8" standalone="no"?><!DOCTYPE svg PUBLIC "-//W3C//DTD SVG 1.1//EN" "http://www.w3.org/Graphics/SVG/1.1/DTD/svg11.dtd"><svg width="100%" height="100%" viewBox="0 0 769 501" version="1.1" xmlns="http://www.w3.org/2000/svg" xmlns:xlink="http://www.w3.org/1999/xlink" xml:space="preserve" xmlns:serif="http://www.serif.com/" style="fill-rule:evenodd;clip-rule:evenodd;stroke-linejoin:round;stroke-miterlimit:2;"><path id="V8S-logo-reverse" serif:id="V8S logo reverse" d="M768.989,150.071l-0,200c-0,82.788 -67.213,150 -150,150l-468,0c-82.788,0 -150,-67.212 -150,-150l-0,-200c-0,-82.787 67.212,-150 150,-150l468,0c82.787,0 150,67.213 150,150Z" style="fill:#134e4a;"/><clipPath id="_clip1"><path d="M768.989,150.071l-0,200c-0,82.788 -67.213,150 -150,150l-468,0c-82.788,0 -150,-67.212 -150,-150l-0,-200c-0,-82.787 67.212,-150 150,-150l468,0c82.787,0 150,67.213 150,150Z"/></clipPath><g clip-path="url(#_clip1)"><g><path d="M642.469,96.582c-10.769,1.306 -15.011,2.611 -25.127,5.874c-13.053,4.243 -25.454,10.443 -38.833,18.275c-10.769,6.527 -16.317,10.443 -25.454,17.622c-4.895,3.589 -16.969,15.664 -21.212,20.559c-6.526,8.158 -11.748,17.621 -14.685,26.106c-0.979,2.937 -1.631,4.242 -2.284,4.895c-0.653,0.326 -0.979,1.632 -1.305,2.284c-0.327,0.979 -0.653,1.958 -0.653,2.611c-0.326,0.653 -0.326,2.937 -0.326,5.221c-0,2.611 -0,3.916 -0.327,3.264c-0.652,-2.285 0,-12.075 1.306,-17.296c1.631,-6.853 6.2,-18.274 10.769,-25.78c0.979,-1.632 1.305,-2.937 1.305,-2.611c-0.653,0.327 -6.2,7.832 -7.832,10.769c-1.958,3.264 -5.548,9.79 -6.853,13.706c-3.589,8.485 -3.916,15.338 -1.632,25.78c1.306,7.506 2.285,9.464 7.506,17.296c3.263,4.895 8.811,11.095 11.748,13.053c3.916,2.611 9.137,4.242 14.685,4.895c8.158,1.305 10.442,1.305 33.286,0.653c23.169,-0.327 35.57,0.979 46.991,4.568c2.285,0.327 3.916,0.979 4.243,0.979c-0,-0.326 -2.937,-2.284 -5.548,-3.589c-4.569,-2.285 -13.38,-4.569 -20.885,-5.874c-2.285,-0.327 -4.243,-0.653 -4.243,-0.653c-0.326,-0 0,-0.326 0.327,-0c0.326,-0 2.284,-0 4.242,0.326c10.769,1.306 17.622,3.59 26.107,8.485c6.526,3.916 7.179,4.569 6.852,8.811c-0.652,8.158 -9.137,23.496 -20.885,36.549c-5.221,5.874 -17.295,17.622 -23.822,23.169c-9.79,8.159 -24.475,17.948 -41.117,27.412c-4.569,2.611 -8.811,5.548 -10.117,6.2c-1.958,1.306 -2.284,1.632 -5.874,2.937c-1.631,0.653 -3.263,1.306 -4.242,1.958c-1.305,0.653 -1.632,0.979 -0.979,1.632l0.326,0.653l1.632,-0.979c2.284,-0.979 4.242,-1.632 4.569,-1.632c0.326,0.653 -20.559,9.79 -26.759,12.074c-4.243,1.306 -4.243,1.306 -3.916,1.632c0.652,0.653 12.4,-2.937 22.516,-7.179c3.59,-1.306 6.853,-2.611 6.853,-2.611c0,0.326 -2.937,1.632 -6.526,3.59c-4.895,2.284 -8.159,3.589 -14.033,5.874c-4.242,1.305 -7.505,2.61 -7.179,2.61c0.653,0 9.79,-1.958 16.643,-3.589c11.748,-3.264 15.99,-4.569 23.822,-8.811c4.895,-2.611 4.569,-1.958 -0.979,1.305c-11.095,6.527 -23.496,11.748 -35.244,14.032c-16.969,3.916 -22.516,4.242 -29.369,2.284c-5.222,-1.305 -6.527,-2.284 -7.832,-6.526c-2.937,-8.485 1.631,-22.191 13.053,-36.223c3.59,-4.895 15.011,-15.664 23.496,-22.843c4.242,-3.59 8.158,-6.853 8.484,-6.853c0.653,-0.653 -1.631,0.653 -5.221,2.937c-7.505,4.895 -14.358,10.443 -19.58,15.011c-3.263,3.264 -1.958,1.306 2.285,-3.263c4.568,-4.569 9.137,-8.485 16.316,-13.706c9.464,-7.179 15.99,-11.095 30.349,-18.927c11.095,-6.2 27.085,-13.053 38.507,-16.969c5.874,-1.958 15.337,-4.569 16.643,-4.569c0.326,0 0.652,-0.326 0.979,-0.326c-0,-0.327 -0.653,-0.327 -2.937,-0.327c-13.706,0.979 -20.233,2.285 -31.328,5.874c-3.263,0.979 -5.874,1.958 -5.874,1.958c0,-0.326 1.305,-0.652 2.611,-1.305c3.263,-1.305 4.568,-2.284 4.568,-2.611c0,-0.652 -0.326,-0.652 -2.284,0c-5.221,1.306 -11.422,3.916 -17.622,6.853c-3.589,1.632 -9.137,4.243 -12.074,5.548c-13.053,6.2 -22.843,12.074 -32.959,19.58c-5.222,3.916 -7.832,6.2 -12.075,10.116c-3.589,3.59 -3.263,3.263 0.979,-2.284c7.18,-8.811 16.317,-17.296 26.759,-24.149c4.895,-3.263 7.506,-4.895 13.38,-7.832c2.611,-1.305 4.895,-2.284 4.895,-2.61c-0.326,-0 -2.284,0.652 -4.895,1.631c-10.769,3.59 -22.19,9.79 -36.223,19.907c-18.601,13.705 -32.959,30.675 -38.833,46.991c-1.305,3.263 -2.937,9.79 -2.937,11.748c-0,0.979 -0,0.979 -0.326,0.326c-0,-0.326 -0.327,-2.284 -0.327,-4.568c0,-6.527 0.979,-10.443 4.243,-17.622c3.263,-6.2 7.179,-11.748 14.685,-20.885c2.61,-3.264 0.978,-1.958 -2.937,2.284c-6.853,7.179 -11.096,13.053 -14.359,19.58c-3.916,7.832 -5.548,14.032 -5.874,20.885c-0.326,8.811 1.305,13.706 6.853,21.864c1.305,1.958 2.937,4.895 3.59,6.527c0.652,1.305 1.958,3.916 2.937,5.221c0.979,1.305 1.958,2.937 2.284,3.263c0.653,2.285 5.874,5.222 10.442,6.527c3.916,0.979 8.159,1.305 15.991,1.305c10.442,0 17.948,-0.979 27.411,-3.589c2.937,-0.979 3.916,-1.306 8.811,-1.306c6.527,-0.326 12.401,-1.305 15.664,-2.937c0.979,-0.326 2.611,-0.979 3.916,-1.305c2.937,-0.653 4.569,-1.305 8.158,-2.937c1.632,-0.653 3.916,-1.632 5.222,-2.284c4.568,-1.958 12.727,-6.527 15.337,-9.138c0.979,-0.326 1.958,-0.978 2.285,-1.305c1.631,-0.326 3.916,-1.631 9.463,-5.221c12.727,-8.811 18.275,-13.053 24.475,-18.601c24.475,-23.169 30.349,-29.37 37.528,-38.833c3.263,-4.569 2.937,-3.916 -0.653,1.305c-6.2,9.137 -21.211,26.759 -36.549,42.097c-2.284,2.284 -3.916,4.242 -3.589,4.242c-0,-0 -0.327,0.326 -0.653,0.653c-0.326,0.326 -0.979,0.979 -1.632,1.305c-0.979,0.979 -1.958,1.632 -9.137,6.527c-5.874,4.242 -10.116,7.505 -10.116,8.158c-0.653,0.979 1.305,-0 8.158,-4.569c7.506,-4.895 10.443,-6.853 14.032,-8.484c2.285,-0.979 15.338,-10.769 21.865,-16.317c13.379,-11.095 23.822,-23.496 32.306,-38.507c10.116,-17.622 12.727,-35.57 7.18,-51.234c-0.979,-3.263 -3.916,-9.463 -5.222,-11.421c-1.305,-1.632 3.59,2.61 4.243,4.242c0.326,0.653 -21.538,-23.822 -22.844,-24.801c-3.916,-2.611 -5.547,-3.59 -10.769,-5.874c-2.284,-0.979 -32.715,-4.895 -34.673,-4.895c-2.937,-0 1.714,0.326 -1.549,-0.326c-4.895,-0.979 -11.095,-1.632 -18.927,-1.958c-6.201,-0.327 -19.254,-1.306 -21.865,-1.958c-1.958,-0 -3.263,-0.979 -3.916,-2.285c-0.979,-1.631 -0.652,-4.895 0.327,-7.179c1.958,-3.263 7.832,-9.79 14.032,-15.338c11.748,-10.442 27.085,-21.211 41.444,-29.696c11.422,-6.526 38.181,-18.601 46.992,-21.537c2.937,-0.653 6.853,-1.306 9.79,-1.306c2.61,0 2.937,0 3.589,0.653c0.653,0.326 0.653,0.653 0.653,2.611c-0.326,2.936 -1.305,5.547 -3.59,10.442c-2.284,4.569 -3.263,6.2 -7.179,11.095c-1.305,1.958 -2.284,3.264 -2.284,3.264c0.326,-0 0.652,-0.327 1.305,-0.653c1.305,-0.653 0.653,-0 -1.632,2.937c-2.284,3.263 -3.916,4.895 -6.853,8.158c-1.305,1.306 -2.284,2.285 -2.284,2.611c0.326,-0 0.979,-0.326 1.958,-0.979c2.937,-1.958 3.59,-2.284 3.916,-2.284c0.326,-0 0.653,-0.327 0.979,-0.979c0.326,-0.327 0.653,-0.653 0.979,-0.327c1.632,0.327 20.559,-16.316 24.801,-22.19c0.979,-0.979 1.958,-2.937 2.611,-3.916c0.326,-0.979 0.979,-1.958 0.979,-2.285l-0,2.937c-0.327,1.632 -0.327,2.937 -0.327,3.264c0.327,-0 0.979,-1.306 1.958,-3.264c2.937,-5.547 3.59,-9.789 2.285,-13.705c-0.979,-2.611 -3.916,-7.506 -7.506,-11.422c-3.59,-4.242 -11.748,-11.748 -13.706,-12.727c-4.568,-2.611 -11.748,-1.958 -25.454,1.632c-16.316,3.916 -31.654,10.442 -54.17,22.517c-16.643,8.81 -26.76,15.011 -36.549,23.169l-3.264,2.937l4.242,-4.242c13.38,-13.054 30.023,-24.475 53.192,-35.897c8.485,-4.242 15.012,-7.179 28.065,-11.748c9.463,-3.589 10.442,-3.916 12.4,-4.242l1.632,0l-2.611,-0.653l1.958,-0.652c2.285,-0.979 2.285,-0.979 -1.958,-0.327Zm-31.001,42.75c-0.326,0.326 -3.916,2.284 -8.158,4.895c-14.359,8.484 -24.801,15.664 -34.265,23.169c-6.527,4.895 -15.011,12.401 -15.99,14.032c-0.327,0.653 -0.653,0.979 -0.979,0.979c-0,-0.326 3.263,-4.242 6.526,-8.158c5.874,-6.526 14.685,-13.379 26.76,-20.885c7.505,-4.569 9.137,-5.548 18.274,-10.116c7.179,-3.916 9.137,-4.895 7.832,-3.916Z" style="fill:#fff;stroke:#fff;stroke-width:1px;"/><path d="M334.087,98.54c-29.37,2.285 -53.518,12.727 -72.119,31.328c-10.769,10.769 -15.338,18.275 -34.591,55.15c-3.59,6.527 -10.769,19.906 -15.99,30.022c-23.496,43.402 -28.065,52.54 -34.265,68.53c-3.916,9.137 -7.832,20.232 -11.748,31.98c-1.632,5.222 -3.263,9.79 -3.263,9.79c-0.327,0.653 -0,-6.526 0.652,-22.843c1.306,-22.843 0.979,-30.349 -2.937,-65.919c-2.61,-21.864 -4.242,-38.18 -5.547,-51.234c-1.632,-15.663 -3.59,-31.654 -4.569,-40.138c-1.631,-15.338 -3.916,-36.223 -4.568,-42.423l-0,-2.285l-62.003,0l-0,1.632c0.326,1.305 3.263,22.517 6.526,46.665c3.264,23.17 6.527,46.992 9.138,63.309c3.589,25.453 8.811,60.697 10.769,72.119c0.652,5.221 2.61,17.621 3.915,27.085c2.285,16.317 5.548,37.528 11.096,74.403c1.305,7.18 2.284,13.38 2.284,13.706c0.653,0.327 13.053,0.327 17.622,0c12.4,-1.631 21.864,-6.853 34.265,-19.253c2.937,-2.937 5.547,-5.874 5.547,-5.874c0,-0.327 0.653,-1.305 1.632,-2.284c4.569,-5.222 13.706,-19.907 24.148,-40.465c9.464,-17.296 20.885,-38.834 24.149,-45.034c0.979,-1.632 5.874,-10.443 10.442,-19.254c12.401,-23.169 16.97,-31.654 29.696,-55.149c6.201,-11.422 14.033,-25.781 16.97,-31.655c10.442,-19.906 18.601,-33.612 24.801,-41.77l0.979,-0.979l-1.632,0.653c-9.137,5.221 -23.169,18.927 -36.223,34.917c-15.011,18.927 -29.696,40.465 -42.749,62.656c-12.074,20.558 -19.58,35.243 -31.98,61.35c-2.611,5.547 -4.895,10.116 -4.895,10.116c-0,-0.326 4.568,-12.727 9.137,-23.496c7.506,-17.622 14.032,-31.98 21.538,-47.644c13.053,-26.106 23.822,-44.381 39.16,-67.55c10.768,-15.991 16.969,-24.149 26.106,-33.286c17.295,-17.296 37.854,-30.349 57.108,-35.897l2.61,-0.979l-5.221,0c-6.853,-0.326 -11.748,-0.326 -15.99,0Z" style="fill:#fff;stroke:#fff;stroke-width:1px;"/><path d="M368.025,200.356c-17.295,1.958 -31.001,9.137 -41.444,21.537c-6.2,7.832 -8.484,11.422 -18.6,31.328c-8.159,16.969 -12.075,24.149 -17.949,35.244c-10.442,19.58 -15.99,37.854 -15.337,50.255c0.979,13.053 4.568,23.496 11.748,34.591c3.263,4.568 3.589,5.547 4.242,7.179c0.326,1.958 1.305,3.263 3.916,5.874c2.937,2.937 10.769,9.137 13.706,10.769c2.937,1.632 8.158,3.916 12.074,4.569c1.632,0.652 4.242,1.305 5.548,1.631c3.263,0.653 21.864,0.979 27.738,0.327c9.79,-1.306 19.906,-5.222 28.064,-11.096c3.59,-2.61 8.811,-7.179 11.748,-10.769c2.937,-3.263 5.874,-7.179 4.895,-6.853c-0.326,0.327 -0.653,0.653 -0.653,0.979c0,0.327 -0.652,-0.326 -0.979,0c0,0.327 -0.326,0.653 -0.652,0.327c-0,-0 -0.327,-0.327 -0,-0.327c-0,-0.326 -2.285,1.306 -4.895,3.264c-4.569,3.589 -14.359,9.79 -19.906,12.727c-2.937,1.631 -8.485,3.589 -12.075,4.568c-8.158,1.958 -18.274,1.306 -28.064,-1.958c-4.569,-1.631 -8.158,-3.263 -12.401,-6.2c-4.242,-2.937 -7.505,-5.874 -10.442,-9.464c-5.221,-7.179 -7.179,-13.379 -8.158,-25.127c-0.653,-7.832 0.326,-16.317 2.61,-22.843c1.306,-3.916 3.59,-8.158 10.769,-20.233c7.179,-12.074 7.832,-13.053 13.38,-25.127c5.874,-12.074 13.379,-27.412 15.99,-32.307c3.916,-7.179 7.179,-11.095 11.748,-14.685c10.116,-7.505 22.843,-9.137 34.265,-4.242c6.2,2.611 11.747,7.179 16.642,13.053c1.306,1.632 2.611,2.937 2.611,2.937c0.653,-0.326 2.284,-3.263 5.548,-9.137c1.631,-2.937 4.242,-8.158 6.526,-12.074c2.937,-5.548 3.59,-6.853 3.264,-7.506c-0.327,-0.653 -3.916,-3.916 -7.18,-6.853c-8.158,-7.179 -17.948,-11.748 -29.369,-13.706c-2.937,-0.652 -5.222,-0.652 -10.769,-0.652c-3.916,-0.327 -7.506,-0.327 -8.159,-0Z" style="fill:#99f6e4;stroke:#99f6e4;stroke-width:1px;"/><path d="M429.376,307.392c-3.264,1.632 -8.811,3.59 -12.401,4.895c-5.874,1.632 -11.095,2.611 -20.233,3.263c-2.284,0 -3.589,0.327 -3.916,0.653c-0.326,0.326 -4.242,7.832 -8.484,16.969c-11.095,22.843 -14.032,27.412 -20.559,34.591c-4.569,4.569 -6.2,5.548 -11.748,6.853c-4.242,1.305 -9.463,1.632 -12.4,1.305c-0.653,-0.326 -1.958,-0.326 -2.285,-0.326c-0.326,0 -0.979,-0.326 -1.305,-0.326c-0,-0.327 -0.326,-0.327 -0.326,-0c-0,-0 -0.327,0.326 -0.653,0.326c-0.326,0 -0.653,-0.326 -0.653,-0.326c0.327,-0 0,-0.327 -0.326,-0c-0.653,-0 -6.527,-1.632 -8.485,-2.937c-1.958,-0.979 -5.547,-4.895 -7.832,-7.832c-1.958,-2.937 -7.505,-13.38 -8.81,-17.296c-0.327,-1.631 -1.306,-4.568 -1.632,-6.526c-0.653,-1.958 -0.979,-3.59 -0.979,-3.916c-0.326,-0 -0.979,2.937 -1.305,6.2c-0.653,4.242 -0.327,10.769 0.652,15.338c0.979,5.221 2.285,10.769 2.937,12.727c2.937,7.831 11.748,15.011 23.496,18.6c7.179,2.611 17.296,3.264 25.454,1.958c4.568,-0.652 9.79,-1.958 13.379,-3.263c4.569,-1.958 11.096,-5.874 16.643,-10.116c4.569,-3.59 5.548,-4.569 8.158,-8.158c1.306,-1.958 2.937,-3.916 2.937,-4.243c0.327,-0.326 1.632,-2.284 3.264,-4.242c8.484,-11.095 14.358,-21.864 23.496,-41.118c5.221,-10.769 6.526,-14.358 6.2,-14.358c-0,-0 -1.306,0.652 -2.284,1.305Z" style="fill:#99f6e4;stroke:#99f6e4;stroke-width:1px;"/><path d="M419.586,97.888c-0.979,-0 -1.632,-0 -1.632,0.326c0.326,0 -0.979,0.326 -2.937,0.653c-15.99,2.937 -32.633,14.685 -43.402,30.675c-1.305,1.958 -4.569,8.158 -7.832,14.358c-2.937,6.201 -9.464,18.601 -14.032,27.412c-7.832,15.338 -11.095,22.191 -10.769,22.843c0.326,0 1.632,-0.326 3.59,-1.305c12.726,-4.569 19.253,-6.2 29.369,-6.853c4.243,0 4.569,0 5.222,-0.979c0.979,-0.979 9.463,-18.274 12.726,-26.106c7.506,-16.643 9.464,-21.212 11.096,-23.496c2.284,-3.263 5.547,-7.179 8.484,-9.79c20.885,-17.948 50.255,-14.685 69.509,7.832c8.811,10.116 14.358,23.496 15.337,37.202c0,1.631 0.327,2.937 0.327,2.61c0.326,-0.979 0.979,-6.526 0.979,-10.769c-0,-4.895 -0.979,-11.748 -1.958,-15.99c-1.632,-5.874 -4.569,-13.053 -7.832,-18.601c-8.485,-13.706 -26.107,-25.78 -42.75,-28.717c-1.958,-0.326 -3.589,-0.979 -3.263,-0.979c0,-0.326 -3.916,-0.653 -11.421,-0.653c-3.916,0 -8.159,0.327 -8.811,0.327Z" style="fill:#99f6e4;stroke:#99f6e4;stroke-width:1px;"/><path d="M435.576,118.773c-10.769,1.305 -20.559,6.853 -27.738,15.338c-0.979,1.631 -1.958,2.936 -1.958,2.936c-0,0.327 0.652,-0.326 1.631,-0.652c3.59,-2.611 8.811,-4.895 13.38,-6.2c11.421,-2.937 24.148,0.326 32.307,8.484c5.874,5.874 9.463,13.053 10.769,21.212c0.326,3.589 -0,9.463 -0.653,13.053c-0.979,5.221 -2.611,9.137 -8.811,20.885c-2.937,5.874 -8.158,15.99 -11.422,22.19c-8.811,17.622 -17.621,33.613 -22.19,41.444c-2.284,3.916 -8.485,8.159 -14.032,10.443c-3.916,1.632 -7.832,1.958 -13.706,1.958c-3.916,-0.326 -5.548,-0.326 -7.506,-0.979c-2.61,-0.653 -8.484,-3.59 -12.074,-5.548c-2.611,-1.631 -6.853,-5.547 -10.116,-9.789c-1.306,-1.306 -2.285,-2.611 -2.285,-2.611c-0.326,-0 -0.652,0.326 -0.979,0.979c-0.979,1.305 -4.568,7.832 -4.568,8.158c-0,0.326 -0.327,0.979 -0.653,1.305c-0.653,0.653 -5.874,12.075 -6.853,13.706c0,0.653 -0.326,0.979 -0.652,0.979c-0.327,0 -0.327,0 -0,0.327c-0,0.326 -0.653,0.652 -0.979,0.979c-0.327,0.652 -0.327,0.979 -0,0.979c0.326,-0 0.326,-0 0.326,0.326c-0,0.326 -0.326,0.326 -0.326,0.326c-0.979,0 -0.653,0.653 -0,1.632c1.305,1.632 11.421,9.137 15.011,11.422c5.874,3.263 13.053,6.2 19.253,7.505c4.895,0.979 8.159,1.305 14.032,1.305c8.159,0 14.359,-0.979 21.865,-3.589c13.705,-4.895 24.474,-13.38 32.633,-26.433c0.979,-1.632 5.547,-10.116 10.116,-18.927c4.569,-8.811 9.137,-17.296 9.79,-18.927c3.589,-5.874 12.074,-23.17 13.379,-26.433c4.569,-10.769 6.853,-19.254 7.18,-28.717c0.652,-21.212 -8.485,-40.139 -24.149,-50.908c-9.79,-6.2 -20.559,-9.137 -30.022,-8.158Z" style="fill:#99f6e4;stroke:#99f6e4;stroke-width:1px;"/><path d="M540.981,347.204c-0.327,0.327 -0.327,0.653 -0.327,0.653c0,0.326 0.653,0 0.979,-0.326c0.979,-0.653 0.327,-0.979 -0.652,-0.327Z" style="fill:#99f6e4;stroke:#99f6e4;stroke-width:1px;"/><path d="M601.352,359.931c-1.306,1.958 -1.632,2.285 -0,0.979c1.305,-1.305 1.631,-1.958 1.305,-1.958c0,-0.326 -0.653,0.327 -1.305,0.979Z" style="fill:#99f6e4;stroke:#99f6e4;stroke-width:1px;"/><path d="M381.731,384.08c-0.652,0.326 -0.979,1.305 -0.326,1.305c0.326,0 1.632,-0.979 1.632,-1.632c-0,-0.326 -0.327,-0.326 -1.306,0.327Z" style="fill:#99f6e4;stroke:#99f6e4;stroke-width:1px;"/></g></g></svg>