<?xml version="1.0" encoding="UTF-8" standalone="no"?><!DOCTYPE svg PUBLIC "-//W3C//DTD SVG 1.1//EN" "http://www.w3.org/Graphics/SVG/1.1/DTD/svg11.dtd"><svg width="100%" height="100%" viewBox="0 0 1125 721" version="1.1" xmlns="http://www.w3.org/2000/svg" xmlns:xlink="http://www.w3.org/1999/xlink" xml:space="preserve" xmlns:serif="http://www.serif.com/" style="fill-rule:evenodd;clip-rule:evenodd;stroke-linejoin:round;stroke-miterlimit:2;"><rect id="vanityURLs-link-redirected-de-dark-9" serif:id="vanityURLs-link redirected-de-dark 9" x="0.071" y="0.082" width="1124" height="720" style="fill:none;"/><g id="VanityURLs.link"><path d="M174.219,456.554l0.253,9.746l0.38,0l3.797,-9.999l17.342,-32.912l17.594,0l-38.733,63.924l-9.621,-0l-12.404,-63.924l17.215,0l4.177,33.165Z" style="fill:#0f766e;fill-rule:nonzero;"/><path d="M255.864,461.364c-0.675,3.207 -1.161,6.455 -1.456,9.747c-0.295,3.291 -0.443,6.413 -0.443,9.367c-0,1.181 0.021,2.299 0.063,3.354c0.042,1.055 0.106,2.046 0.19,2.975l-11.519,-0l-1.772,-10.886l-0.506,-0c-0.929,1.519 -2.131,3.017 -3.608,4.493c-1.477,1.477 -3.101,2.827 -4.873,4.051c-1.772,1.223 -3.65,2.194 -5.633,2.911c-1.983,0.718 -4.03,1.076 -6.139,1.076c-5.57,0 -9.684,-1.814 -12.342,-5.443c-2.658,-3.628 -3.987,-8.481 -3.987,-14.557c-0,-6.16 0.78,-12.067 2.341,-17.721c1.562,-5.654 3.988,-10.633 7.279,-14.937c3.291,-4.303 7.447,-7.742 12.468,-10.316c5.021,-2.574 10.992,-3.861 17.911,-3.861c2.954,0 6.182,0.275 9.684,0.823c3.502,0.549 6.899,1.287 10.19,2.215l-7.848,36.709Zm-29.747,14.05c1.519,0 2.954,-0.316 4.304,-0.949c1.35,-0.633 2.595,-1.456 3.734,-2.468c1.139,-1.013 2.152,-2.11 3.038,-3.291c0.886,-1.182 1.667,-2.279 2.342,-3.292l6.329,-29.493c-0.929,-0.422 -2.005,-0.738 -3.228,-0.949c-1.224,-0.211 -2.426,-0.317 -3.608,-0.317c-3.038,0 -5.738,0.907 -8.101,2.722c-2.363,1.814 -4.367,4.177 -6.012,7.088c-1.646,2.912 -2.891,6.203 -3.735,9.874c-0.844,3.67 -1.265,7.362 -1.265,11.075c-0,2.701 0.443,5.043 1.329,7.026c0.886,1.983 2.51,2.974 4.873,2.974Z" style="fill:#0f766e;fill-rule:nonzero;"/><path d="M297.382,486.68l8.355,-39.24c0.506,-2.363 0.759,-4.43 0.759,-6.203c0,-1.856 -0.38,-3.312 -1.139,-4.367c-0.76,-1.054 -2.152,-1.582 -4.177,-1.582c-1.519,0 -3.038,0.38 -4.557,1.139c-1.519,0.76 -2.954,1.772 -4.304,3.038c-1.35,1.266 -2.616,2.68 -3.797,4.241c-1.182,1.561 -2.195,3.143 -3.038,4.747l-8.102,38.227l-15.569,0l13.418,-63.291l11.772,0l-0.633,11.14l0.506,-0c1.097,-1.351 2.384,-2.785 3.861,-4.304c1.476,-1.519 3.185,-2.912 5.126,-4.177c1.941,-1.266 4.114,-2.321 6.519,-3.165c2.405,-0.844 5.127,-1.266 8.165,-1.266c3.797,0 6.835,1.034 9.114,3.102c2.278,2.067 3.417,5.506 3.417,10.316c0,1.266 -0.063,2.616 -0.19,4.051c-0.126,1.434 -0.401,2.995 -0.822,4.683l-9.114,42.911l-15.57,0Z" style="fill:#0f766e;fill-rule:nonzero;"/><path d="M338.521,423.389l15.57,0l-13.418,63.291l-15.569,0l13.417,-63.291Zm2.532,-17.974c-0,-2.785 0.907,-4.937 2.721,-6.456c1.815,-1.519 4.114,-2.278 6.899,-2.278c2.7,-0 5,0.759 6.899,2.278c1.898,1.519 2.848,3.671 2.848,6.456c-0,2.7 -0.95,4.831 -2.848,6.392c-1.899,1.561 -4.199,2.342 -6.899,2.342c-2.785,0 -5.084,-0.781 -6.899,-2.342c-1.814,-1.561 -2.721,-3.692 -2.721,-6.392Z" style="fill:#0f766e;fill-rule:nonzero;"/><path d="M360.926,423.389l8.228,0l2.531,-11.898l16.583,-4.684l-3.545,16.582l14.81,0l-2.911,13.038l-14.684,0l-6.202,28.608c-0.506,2.278 -0.76,4.135 -0.76,5.569c0,1.857 0.422,3.123 1.266,3.798c0.844,0.675 2.11,1.012 3.798,1.012c1.603,0 3.059,-0.168 4.367,-0.506c1.308,-0.338 2.679,-0.886 4.114,-1.646l-0,11.646c-0.929,0.506 -2.047,0.991 -3.355,1.456c-1.308,0.464 -2.721,0.843 -4.24,1.139c-1.519,0.295 -3.08,0.527 -4.684,0.696c-1.603,0.169 -3.08,0.253 -4.43,0.253c-4.304,0 -7.616,-0.991 -9.937,-2.974c-2.32,-1.984 -3.481,-5 -3.481,-9.051c0,-0.844 0.064,-1.73 0.19,-2.658c0.127,-0.928 0.274,-1.899 0.443,-2.912l7.342,-34.43l-8.481,0l3.038,-13.038Z" style="fill:#0f766e;fill-rule:nonzero;"/><path d="M425.356,458.959l0.126,9.873l0.76,0l3.418,-10l17.215,-35.443l16.582,0l-30.38,56.835c-2.531,4.726 -4.915,9.072 -7.152,13.038c-2.236,3.966 -4.493,7.384 -6.772,10.253c-2.278,2.87 -4.641,5.106 -7.088,6.709c-2.447,1.604 -5.063,2.405 -7.848,2.405c-3.713,0 -6.498,-0.633 -8.355,-1.899l4.178,-12.404c0.506,0.253 1.033,0.421 1.582,0.506c0.548,0.084 1.076,0.126 1.582,0.126c2.025,0 4.093,-0.97 6.203,-2.911c2.109,-1.941 4.219,-5.063 6.329,-9.367l-11.899,-63.291l17.848,0l3.671,35.57Z" style="fill:#0f766e;fill-rule:nonzero;"/><path d="M528.773,398.073l15.443,0l-12.026,57.215c-1.266,6.076 -2.911,11.202 -4.936,15.38c-2.026,4.177 -4.473,7.573 -7.342,10.189c-2.869,2.616 -6.245,4.494 -10.127,5.633c-3.881,1.139 -8.354,1.709 -13.417,1.709c-4.895,0 -9.03,-0.57 -12.405,-1.709c-3.376,-1.139 -6.139,-2.764 -8.291,-4.873c-2.152,-2.11 -3.713,-4.599 -4.684,-7.468c-0.97,-2.87 -1.455,-6.034 -1.455,-9.494c-0,-1.688 0.105,-3.418 0.316,-5.19c0.211,-1.772 0.527,-3.629 0.949,-5.569l11.899,-55.823l16.329,0l-11.645,55.696c-0.676,3.207 -1.013,5.823 -1.013,7.848c-0,4.051 1.055,6.92 3.164,8.607c2.11,1.688 5.19,2.532 9.241,2.532c5.063,0 8.987,-1.477 11.772,-4.43c2.785,-2.954 4.894,-7.722 6.329,-14.304l11.899,-55.949Z" style="fill:#0f766e;fill-rule:nonzero;"/><path d="M557.633,398.959c4.051,-0.759 8.144,-1.308 12.278,-1.645c4.135,-0.338 7.849,-0.507 11.14,-0.507c3.881,0 7.552,0.465 11.012,1.393c3.46,0.928 6.456,2.342 8.987,4.24c2.532,1.899 4.536,4.346 6.013,7.342c1.477,2.996 2.215,6.519 2.215,10.57c0,4.641 -0.696,8.67 -2.088,12.088c-1.393,3.418 -3.228,6.287 -5.507,8.608c-2.278,2.32 -4.873,4.135 -7.784,5.443c-2.912,1.308 -5.886,2.173 -8.924,2.594l4.936,3.924l12.279,33.671l-18.228,0l-12.152,-34.683l-8.734,-1.646l-7.595,36.329l-16.455,0l18.607,-87.721Zm7.975,39.62l6.709,0c2.447,0 4.852,-0.232 7.215,-0.696c2.363,-0.464 4.451,-1.308 6.265,-2.532c1.815,-1.223 3.292,-2.848 4.431,-4.873c1.139,-2.025 1.709,-4.599 1.709,-7.721c-0,-2.87 -0.971,-5.338 -2.912,-7.405c-1.941,-2.068 -5.063,-3.102 -9.367,-3.102c-1.688,0 -3.27,0.064 -4.747,0.19c-1.476,0.127 -2.721,0.274 -3.734,0.443l-5.569,25.696Z" style="fill:#0f766e;fill-rule:nonzero;"/><path d="M664.974,486.68l-53.291,0l18.734,-88.607l16.456,0l-15.57,73.164l36.835,0l-3.164,15.443Z" style="fill:#0f766e;fill-rule:nonzero;"/><path d="M675.354,471.87c1.687,0.928 3.86,1.751 6.519,2.468c2.658,0.718 5.464,1.076 8.417,1.076c2.954,0 5.211,-0.569 6.772,-1.709c1.561,-1.139 2.384,-2.89 2.469,-5.253c-0,-1.687 -0.507,-3.143 -1.519,-4.367c-1.013,-1.223 -2.3,-2.384 -3.861,-3.481c-1.561,-1.097 -3.228,-2.215 -5,-3.354c-1.772,-1.139 -3.439,-2.447 -5,-3.924c-1.561,-1.477 -2.848,-3.228 -3.861,-5.253c-1.012,-2.026 -1.519,-4.473 -1.519,-7.342c0,-2.785 0.549,-5.359 1.646,-7.721c1.097,-2.363 2.637,-4.389 4.62,-6.076c1.983,-1.688 4.388,-2.996 7.215,-3.924c2.827,-0.929 6.013,-1.393 9.557,-1.393c4.895,0 8.945,0.359 12.152,1.076c3.207,0.718 5.738,1.625 7.595,2.722l-4.304,11.898c-1.688,-0.759 -3.734,-1.392 -6.139,-1.898c-2.405,-0.507 -4.916,-0.76 -7.532,-0.76c-2.7,0 -4.831,0.464 -6.392,1.393c-1.561,0.928 -2.342,2.405 -2.342,4.43c0,1.35 0.506,2.553 1.519,3.607c1.013,1.055 2.3,2.131 3.861,3.228c1.561,1.097 3.228,2.215 5,3.355c1.772,1.139 3.439,2.51 5,4.114c1.561,1.603 2.848,3.438 3.86,5.506c1.013,2.067 1.519,4.536 1.519,7.405c0,7.004 -2.278,12.215 -6.835,15.633c-4.557,3.417 -10.633,5.126 -18.228,5.126c-4.303,0 -8.249,-0.401 -11.835,-1.202c-3.586,-0.802 -6.35,-1.794 -8.291,-2.975l4.937,-12.405Z" style="fill:#0f766e;fill-rule:nonzero;"/><path d="M724.847,478.326c-0,-2.954 0.928,-5.296 2.785,-7.026c1.856,-1.73 4.303,-2.594 7.341,-2.594c3.123,-0 5.612,0.864 7.469,2.594c1.856,1.73 2.784,4.072 2.784,7.026c0,2.953 -0.928,5.316 -2.784,7.088c-1.857,1.772 -4.346,2.658 -7.469,2.658c-3.038,0 -5.485,-0.886 -7.341,-2.658c-1.857,-1.772 -2.785,-4.135 -2.785,-7.088Z" style="fill:#14b8a6;fill-rule:nonzero;"/><path d="M773.707,467.946c-0.506,2.447 -0.485,4.262 0.063,5.443c0.549,1.181 1.456,1.772 2.722,1.772c2.363,0 4.599,-0.464 6.709,-1.392l-0.38,11.265c-1.519,0.929 -3.713,1.688 -6.582,2.279c-2.869,0.591 -5.696,0.886 -8.481,0.886c-3.629,0 -6.392,-0.696 -8.291,-2.089c-1.899,-1.392 -2.848,-3.987 -2.848,-7.784c-0,-1.941 0.253,-4.177 0.759,-6.709l15.57,-73.544l15.569,0l-14.81,69.873Z" style="fill:#0f766e;fill-rule:nonzero;"/><path d="M803.707,423.389l15.569,0l-13.417,63.291l-15.57,0l13.418,-63.291Zm2.532,-17.974c-0,-2.785 0.907,-4.937 2.721,-6.456c1.814,-1.519 4.114,-2.278 6.899,-2.278c2.7,-0 5,0.759 6.898,2.278c1.899,1.519 2.848,3.671 2.848,6.456c0,2.7 -0.949,4.831 -2.848,6.392c-1.898,1.561 -4.198,2.342 -6.898,2.342c-2.785,0 -5.085,-0.781 -6.899,-2.342c-1.814,-1.561 -2.721,-3.692 -2.721,-6.392Z" style="fill:#0f766e;fill-rule:nonzero;"/><path d="M857.124,486.68l8.355,-39.24c0.506,-2.363 0.759,-4.43 0.759,-6.203c0,-1.856 -0.38,-3.312 -1.139,-4.367c-0.76,-1.054 -2.152,-1.582 -4.177,-1.582c-1.519,0 -3.038,0.38 -4.557,1.139c-1.519,0.76 -2.954,1.772 -4.304,3.038c-1.35,1.266 -2.616,2.68 -3.798,4.241c-1.181,1.561 -2.194,3.143 -3.037,4.747l-8.102,38.227l-15.569,0l13.417,-63.291l11.773,0l-0.633,11.14l0.506,-0c1.097,-1.351 2.384,-2.785 3.861,-4.304c1.476,-1.519 3.185,-2.912 5.126,-4.177c1.941,-1.266 4.114,-2.321 6.519,-3.165c2.405,-0.844 5.127,-1.266 8.165,-1.266c3.797,0 6.835,1.034 9.113,3.102c2.279,2.067 3.418,5.506 3.418,10.316c0,1.266 -0.063,2.616 -0.19,4.051c-0.126,1.434 -0.401,2.995 -0.822,4.683l-9.114,42.911l-15.57,0Z" style="fill:#0f766e;fill-rule:nonzero;"/><path d="M913.579,460.478l-5.063,-0l-5.443,26.202l-15.569,0l18.734,-88.607l15.569,0l-11.139,52.278l4.684,-1.645l17.847,-25.317l17.342,0l-18.861,25.443l-7.594,4.81l5.696,4.81l9.62,28.228l-16.709,0l-9.114,-26.202Z" style="fill:#0f766e;fill-rule:nonzero;"/></g><path id="path830" d="M728.372,69.444c-271.34,0 -668.428,119.519 -668.428,319.253c-0,137.926 152.237,262.602 465.292,262.602c257.899,0 542.962,-104.728 542.962,-277.065c-0,-160.933 -202.623,-216.48 -320.452,-222.265l0,55.333c131.403,6.92 287.749,71.409 280.513,175.985c-6.618,95.637 -163.936,220.478 -509.291,228.152c-219.779,4.884 -425.326,-95.401 -420.308,-213.761c4.78,-112.729 229.806,-266.227 620.501,-273.239c103.325,-1.855 170.113,20.212 194.594,30.972l13.082,-69.36c0,-0 -76.496,-16.607 -198.465,-16.607Z" style="fill:#14b8a6;fill-rule:nonzero;"/><g><path d="M210.824,297.882l9.464,26.624l1.872,8.632l0.416,0l1.456,-8.736l6.656,-26.52l12.376,0l-16.016,52.52l-9.984,0l-10.504,-29.12l-1.352,-6.552l-0.52,0l-1.248,6.656l-9.984,29.016l-10.296,0l-16.744,-52.52l14.664,0l7.592,26.104l1.248,9.256l0.52,0l1.768,-9.36l8.632,-26l9.984,0Z" style="fill:#fff;fill-rule:nonzero;"/><path d="M286.744,345.41c-2.08,1.664 -4.906,3.068 -8.476,4.212c-3.571,1.144 -7.367,1.716 -11.388,1.716c-8.39,0 -14.526,-2.444 -18.408,-7.332c-3.883,-4.888 -5.824,-11.596 -5.824,-20.124c-0,-9.152 2.184,-16.016 6.552,-20.592c4.368,-4.576 10.504,-6.864 18.408,-6.864c2.634,0 5.2,0.347 7.696,1.04c2.496,0.694 4.714,1.838 6.656,3.432c1.941,1.595 3.501,3.744 4.68,6.448c1.178,2.704 1.768,6.067 1.768,10.088c-0,1.456 -0.087,3.016 -0.26,4.68c-0.174,1.664 -0.434,3.398 -0.78,5.2l-31.2,0c0.208,4.368 1.334,7.662 3.38,9.88c2.045,2.219 5.356,3.328 9.932,3.328c2.842,0 5.39,-0.433 7.644,-1.3c2.253,-0.866 3.969,-1.75 5.148,-2.652l4.472,8.84Zm-19.344,-38.168c-3.536,0 -6.154,1.058 -7.852,3.172c-1.699,2.115 -2.722,4.94 -3.068,8.476l19.344,0c0.277,-3.744 -0.295,-6.621 -1.716,-8.632c-1.422,-2.01 -3.658,-3.016 -6.708,-3.016Z" style="fill:#fff;fill-rule:nonzero;"/><path d="M297.144,297.882l13.52,0l-0,52l-13.52,0l-0,-52Zm-1.976,-14.664c-0,-2.01 0.745,-3.726 2.236,-5.148c1.49,-1.421 3.553,-2.132 6.188,-2.132c2.634,0 4.766,0.711 6.396,2.132c1.629,1.422 2.444,3.138 2.444,5.148c-0,2.011 -0.815,3.692 -2.444,5.044c-1.63,1.352 -3.762,2.028 -6.396,2.028c-2.635,0 -4.698,-0.676 -6.188,-2.028c-1.491,-1.352 -2.236,-3.033 -2.236,-5.044Z" style="fill:#fff;fill-rule:nonzero;"/><path d="M316.384,297.882l7.176,0l-0,-9.776l13.52,-3.848l-0,13.624l12.688,0l-0,11.44l-12.688,0l-0,19.968c-0,3.606 0.364,6.188 1.092,7.748c0.728,1.56 2.097,2.34 4.108,2.34c1.386,0 2.582,-0.138 3.588,-0.416c1.005,-0.277 2.132,-0.693 3.38,-1.248l2.392,10.4c-1.872,0.902 -4.056,1.664 -6.552,2.288c-2.496,0.624 -5.027,0.936 -7.592,0.936c-4.784,0 -8.303,-1.23 -10.556,-3.692c-2.254,-2.461 -3.38,-6.5 -3.38,-12.116l-0,-26.208l-7.176,0l-0,-11.44Z" style="fill:#fff;fill-rule:nonzero;"/><path d="M397.088,345.41c-2.08,1.664 -4.906,3.068 -8.476,4.212c-3.571,1.144 -7.367,1.716 -11.388,1.716c-8.39,0 -14.526,-2.444 -18.408,-7.332c-3.883,-4.888 -5.824,-11.596 -5.824,-20.124c-0,-9.152 2.184,-16.016 6.552,-20.592c4.368,-4.576 10.504,-6.864 18.408,-6.864c2.634,0 5.2,0.347 7.696,1.04c2.496,0.694 4.714,1.838 6.656,3.432c1.941,1.595 3.501,3.744 4.68,6.448c1.178,2.704 1.768,6.067 1.768,10.088c-0,1.456 -0.087,3.016 -0.26,4.68c-0.174,1.664 -0.434,3.398 -0.78,5.2l-31.2,0c0.208,4.368 1.334,7.662 3.38,9.88c2.045,2.219 5.356,3.328 9.932,3.328c2.842,0 5.39,-0.433 7.644,-1.3c2.253,-0.866 3.969,-1.75 5.148,-2.652l4.472,8.84Zm-19.344,-38.168c-3.536,0 -6.154,1.058 -7.852,3.172c-1.699,2.115 -2.722,4.94 -3.068,8.476l19.344,0c0.277,-3.744 -0.295,-6.621 -1.716,-8.632c-1.422,-2.01 -3.658,-3.016 -6.708,-3.016Z" style="fill:#fff;fill-rule:nonzero;"/><path d="M434.944,310.57c-2.15,-0.762 -4.091,-1.144 -5.824,-1.144c-2.427,0 -4.455,0.642 -6.084,1.924c-1.63,1.283 -2.722,2.93 -3.276,4.94l-0,33.592l-13.52,0l-0,-52l10.504,0l1.56,6.864l0.416,0c1.178,-2.565 2.773,-4.541 4.784,-5.928c2.01,-1.386 4.368,-2.08 7.072,-2.08c1.802,0 3.848,0.382 6.136,1.144l-1.768,12.688Z" style="fill:#fff;fill-rule:nonzero;"/><path d="M484.656,349.882c-0,7.558 -2.046,13.122 -6.136,16.692c-4.091,3.571 -9.811,5.356 -17.16,5.356c-4.992,0 -8.927,-0.346 -11.804,-1.04c-2.878,-0.693 -5.044,-1.421 -6.5,-2.184l2.808,-10.712c1.594,0.624 3.449,1.248 5.564,1.872c2.114,0.624 4.732,0.936 7.852,0.936c4.714,0 7.921,-1.022 9.62,-3.068c1.698,-2.045 2.548,-4.905 2.548,-8.58l-0,-3.328l-0.416,0c-2.427,3.259 -6.726,4.888 -12.896,4.888c-6.726,0 -11.735,-2.08 -15.028,-6.24c-3.294,-4.16 -4.94,-10.677 -4.94,-19.552c-0,-9.29 2.218,-16.328 6.656,-21.112c4.437,-4.784 10.885,-7.176 19.344,-7.176c4.437,0 8.406,0.312 11.908,0.936c3.501,0.624 6.361,1.352 8.58,2.184l-0,50.128Zm-22.88,-9.984c2.634,0 4.662,-0.589 6.084,-1.768c1.421,-1.178 2.513,-2.946 3.276,-5.304l-0,-23.4c-2.15,-0.901 -4.819,-1.352 -8.008,-1.352c-3.467,0 -6.171,1.3 -8.112,3.9c-1.942,2.6 -2.912,6.743 -2.912,12.428c-0,5.062 0.832,8.91 2.496,11.544c1.664,2.635 4.056,3.952 7.176,3.952Z" style="fill:#fff;fill-rule:nonzero;"/><path d="M535.928,345.41c-2.08,1.664 -4.906,3.068 -8.476,4.212c-3.571,1.144 -7.367,1.716 -11.388,1.716c-8.39,0 -14.526,-2.444 -18.408,-7.332c-3.883,-4.888 -5.824,-11.596 -5.824,-20.124c-0,-9.152 2.184,-16.016 6.552,-20.592c4.368,-4.576 10.504,-6.864 18.408,-6.864c2.634,0 5.2,0.347 7.696,1.04c2.496,0.694 4.714,1.838 6.656,3.432c1.941,1.595 3.501,3.744 4.68,6.448c1.178,2.704 1.768,6.067 1.768,10.088c-0,1.456 -0.087,3.016 -0.26,4.68c-0.174,1.664 -0.434,3.398 -0.78,5.2l-31.2,0c0.208,4.368 1.334,7.662 3.38,9.88c2.045,2.219 5.356,3.328 9.932,3.328c2.842,0 5.39,-0.433 7.644,-1.3c2.253,-0.866 3.969,-1.75 5.148,-2.652l4.472,8.84Zm-19.344,-38.168c-3.536,0 -6.154,1.058 -7.852,3.172c-1.699,2.115 -2.722,4.94 -3.068,8.476l19.344,0c0.277,-3.744 -0.295,-6.621 -1.716,-8.632c-1.422,-2.01 -3.658,-3.016 -6.708,-3.016Z" style="fill:#fff;fill-rule:nonzero;"/><path d="M559.016,332.41c-0,2.427 0.312,4.195 0.936,5.304c0.624,1.11 1.629,1.664 3.016,1.664c0.832,0 1.646,-0.069 2.444,-0.208c0.797,-0.138 1.785,-0.45 2.964,-0.936l1.456,10.608c-1.11,0.555 -2.808,1.11 -5.096,1.664c-2.288,0.555 -4.646,0.832 -7.072,0.832c-3.952,0 -6.968,-0.918 -9.048,-2.756c-2.08,-1.837 -3.12,-4.87 -3.12,-9.1l-0,-62.4l13.52,0l-0,55.328Z" style="fill:#fff;fill-rule:nonzero;"/><path d="M615.176,345.41c-2.08,1.664 -4.906,3.068 -8.476,4.212c-3.571,1.144 -7.367,1.716 -11.388,1.716c-8.39,0 -14.526,-2.444 -18.408,-7.332c-3.883,-4.888 -5.824,-11.596 -5.824,-20.124c-0,-9.152 2.184,-16.016 6.552,-20.592c4.368,-4.576 10.504,-6.864 18.408,-6.864c2.634,0 5.2,0.347 7.696,1.04c2.496,0.694 4.714,1.838 6.656,3.432c1.941,1.595 3.501,3.744 4.68,6.448c1.178,2.704 1.768,6.067 1.768,10.088c-0,1.456 -0.087,3.016 -0.26,4.68c-0.174,1.664 -0.434,3.398 -0.78,5.2l-31.2,0c0.208,4.368 1.334,7.662 3.38,9.88c2.045,2.219 5.356,3.328 9.932,3.328c2.842,0 5.39,-0.433 7.644,-1.3c2.253,-0.866 3.969,-1.75 5.148,-2.652l4.472,8.84Zm-19.344,-38.168c-3.536,0 -6.154,1.058 -7.852,3.172c-1.699,2.115 -2.722,4.94 -3.068,8.476l19.344,0c0.277,-3.744 -0.295,-6.621 -1.716,-8.632c-1.422,-2.01 -3.658,-3.016 -6.708,-3.016Z" style="fill:#fff;fill-rule:nonzero;"/><path d="M625.576,297.882l13.52,0l-0,52l-13.52,0l-0,-52Zm-1.976,-14.664c-0,-2.01 0.745,-3.726 2.236,-5.148c1.49,-1.421 3.553,-2.132 6.188,-2.132c2.634,0 4.766,0.711 6.396,2.132c1.629,1.422 2.444,3.138 2.444,5.148c-0,2.011 -0.815,3.692 -2.444,5.044c-1.63,1.352 -3.762,2.028 -6.396,2.028c-2.635,0 -4.698,-0.676 -6.188,-2.028c-1.491,-1.352 -2.236,-3.033 -2.236,-5.044Z" style="fill:#fff;fill-rule:nonzero;"/><path d="M644.816,297.882l7.176,0l-0,-9.776l13.52,-3.848l-0,13.624l12.688,0l-0,11.44l-12.688,0l-0,19.968c-0,3.606 0.364,6.188 1.092,7.748c0.728,1.56 2.097,2.34 4.108,2.34c1.386,0 2.582,-0.138 3.588,-0.416c1.005,-0.277 2.132,-0.693 3.38,-1.248l2.392,10.4c-1.872,0.902 -4.056,1.664 -6.552,2.288c-2.496,0.624 -5.027,0.936 -7.592,0.936c-4.784,0 -8.303,-1.23 -10.556,-3.692c-2.254,-2.461 -3.38,-6.5 -3.38,-12.116l-0,-26.208l-7.176,0l-0,-11.44Z" style="fill:#fff;fill-rule:nonzero;"/><path d="M725.52,345.41c-2.08,1.664 -4.906,3.068 -8.476,4.212c-3.571,1.144 -7.367,1.716 -11.388,1.716c-8.39,0 -14.526,-2.444 -18.408,-7.332c-3.883,-4.888 -5.824,-11.596 -5.824,-20.124c-0,-9.152 2.184,-16.016 6.552,-20.592c4.368,-4.576 10.504,-6.864 18.408,-6.864c2.634,0 5.2,0.347 7.696,1.04c2.496,0.694 4.714,1.838 6.656,3.432c1.941,1.595 3.501,3.744 4.68,6.448c1.178,2.704 1.768,6.067 1.768,10.088c-0,1.456 -0.087,3.016 -0.26,4.68c-0.174,1.664 -0.434,3.398 -0.78,5.2l-31.2,0c0.208,4.368 1.334,7.662 3.38,9.88c2.045,2.219 5.356,3.328 9.932,3.328c2.842,0 5.39,-0.433 7.644,-1.3c2.253,-0.866 3.969,-1.75 5.148,-2.652l4.472,8.84Zm-19.344,-38.168c-3.536,0 -6.154,1.058 -7.852,3.172c-1.699,2.115 -2.722,4.94 -3.068,8.476l19.344,0c0.277,-3.744 -0.295,-6.621 -1.716,-8.632c-1.422,-2.01 -3.658,-3.016 -6.708,-3.016Z" style="fill:#fff;fill-rule:nonzero;"/><path d="M729.264,297.882l7.176,0l-0,-9.776l13.52,-3.848l-0,13.624l12.688,0l-0,11.44l-12.688,0l-0,19.968c-0,3.606 0.364,6.188 1.092,7.748c0.728,1.56 2.097,2.34 4.108,2.34c1.386,0 2.582,-0.138 3.588,-0.416c1.005,-0.277 2.132,-0.693 3.38,-1.248l2.392,10.4c-1.872,0.902 -4.056,1.664 -6.552,2.288c-2.496,0.624 -5.027,0.936 -7.592,0.936c-4.784,0 -8.303,-1.23 -10.556,-3.692c-2.254,-2.461 -3.38,-6.5 -3.38,-12.116l-0,-26.208l-7.176,0l-0,-11.44Z" style="fill:#fff;fill-rule:nonzero;"/><path d="M809.032,325.13l1.768,8.008l0.52,0l1.456,-8.216l8.84,-27.04l14.56,0l-21.736,52.52l-8.216,0l-22.568,-52.52l15.704,0l9.672,27.248Z" style="fill:#fff;fill-rule:nonzero;"/><path d="M835.344,323.882c-0,-8.805 2.149,-15.582 6.448,-20.332c4.298,-4.749 10.33,-7.124 18.096,-7.124c4.16,0 7.765,0.659 10.816,1.976c3.05,1.318 5.581,3.172 7.592,5.564c2.01,2.392 3.518,5.287 4.524,8.684c1.005,3.398 1.508,7.142 1.508,11.232c-0,8.806 -2.132,15.583 -6.396,20.332c-4.264,4.75 -10.279,7.124 -18.044,7.124c-4.16,0 -7.766,-0.658 -10.816,-1.976c-3.051,-1.317 -5.599,-3.172 -7.644,-5.564c-2.046,-2.392 -3.571,-5.286 -4.576,-8.684c-1.006,-3.397 -1.508,-7.141 -1.508,-11.232Zm13.936,0c-0,2.288 0.208,4.403 0.624,6.344c0.416,1.942 1.04,3.64 1.872,5.096c0.832,1.456 1.924,2.583 3.276,3.38c1.352,0.798 2.964,1.196 4.836,1.196c3.536,0 6.17,-1.282 7.904,-3.848c1.733,-2.565 2.6,-6.621 2.6,-12.168c-0,-4.784 -0.798,-8.649 -2.392,-11.596c-1.595,-2.946 -4.299,-4.42 -8.112,-4.42c-3.328,0 -5.928,1.248 -7.8,3.744c-1.872,2.496 -2.808,6.587 -2.808,12.272Z" style="fill:#fff;fill-rule:nonzero;"/><path d="M923.432,349.882l-0,-29.536c-0,-4.229 -0.607,-7.28 -1.82,-9.152c-1.214,-1.872 -3.276,-2.808 -6.188,-2.808c-2.566,0 -4.732,0.746 -6.5,2.236c-1.768,1.491 -3.034,3.346 -3.796,5.564l-0,33.696l-13.52,0l-0,-52l10.712,0l1.56,6.864l0.416,0c1.594,-2.218 3.709,-4.16 6.344,-5.824c2.634,-1.664 6.032,-2.496 10.192,-2.496c2.565,0 4.853,0.347 6.864,1.04c2.01,0.694 3.709,1.838 5.096,3.432c1.386,1.595 2.426,3.762 3.12,6.5c0.693,2.739 1.04,6.119 1.04,10.14l-0,32.344l-13.52,0Z" style="fill:#fff;fill-rule:nonzero;"/></g></svg>