<?xml version="1.0" encoding="UTF-8" standalone="no"?><!DOCTYPE svg PUBLIC "-//W3C//DTD SVG 1.1//EN" "http://www.w3.org/Graphics/SVG/1.1/DTD/svg11.dtd"><svg width="100%" height="100%" viewBox="0 0 1125 721" version="1.1" xmlns="http://www.w3.org/2000/svg" xmlns:xlink="http://www.w3.org/1999/xlink" xml:space="preserve" xmlns:serif="http://www.serif.com/" style="fill-rule:evenodd;clip-rule:evenodd;stroke-linejoin:round;stroke-miterlimit:2;"><rect id="vanityURLs-link-redirected-en-dark" serif:id="vanityURLs-link redirected-en-dark" x="0.579" y="0.294" width="1124" height="720" style="fill:none;"/><g><g id="VanityURLs.link"><path d="M173.049,456.766l0.253,9.747l0.38,-0l3.797,-10l17.342,-32.911l17.595,-0l-38.734,63.923l-9.62,0l-12.405,-63.923l17.215,-0l4.177,33.164Z" style="fill:#0f766e;fill-rule:nonzero;"/><path d="M254.694,461.576c-0.675,3.207 -1.161,6.456 -1.456,9.747c-0.295,3.291 -0.443,6.413 -0.443,9.367c0,1.181 0.021,2.299 0.063,3.354c0.042,1.055 0.106,2.046 0.19,2.975l-11.519,-0l-1.772,-10.886l-0.506,-0c-0.928,1.519 -2.131,3.017 -3.608,4.493c-1.477,1.477 -3.101,2.827 -4.873,4.051c-1.772,1.224 -3.65,2.194 -5.633,2.911c-1.983,0.718 -4.029,1.076 -6.139,1.076c-5.57,0 -9.684,-1.814 -12.342,-5.443c-2.658,-3.628 -3.987,-8.481 -3.987,-14.557c-0,-6.16 0.78,-12.067 2.342,-17.721c1.561,-5.654 3.987,-10.633 7.278,-14.936c3.291,-4.304 7.447,-7.743 12.468,-10.317c5.021,-2.574 10.992,-3.861 17.912,-3.861c2.953,0 6.181,0.275 9.683,0.823c3.502,0.549 6.899,1.287 10.19,2.215l-7.848,36.709Zm-29.747,14.05c1.519,0 2.954,-0.316 4.304,-0.949c1.35,-0.633 2.595,-1.456 3.734,-2.468c1.139,-1.013 2.152,-2.11 3.038,-3.291c0.886,-1.182 1.667,-2.279 2.342,-3.291l6.329,-29.494c-0.928,-0.422 -2.004,-0.738 -3.228,-0.949c-1.224,-0.211 -2.426,-0.317 -3.608,-0.317c-3.038,0 -5.738,0.907 -8.101,2.722c-2.363,1.814 -4.367,4.177 -6.012,7.088c-1.646,2.912 -2.891,6.203 -3.735,9.874c-0.843,3.671 -1.265,7.362 -1.265,11.076c-0,2.7 0.443,5.042 1.329,7.025c0.886,1.983 2.51,2.974 4.873,2.974Z" style="fill:#0f766e;fill-rule:nonzero;"/><path d="M296.212,486.892l8.355,-39.24c0.506,-2.363 0.759,-4.43 0.759,-6.203c0,-1.856 -0.38,-3.312 -1.139,-4.367c-0.76,-1.054 -2.152,-1.582 -4.177,-1.582c-1.519,0 -3.038,0.38 -4.557,1.139c-1.519,0.76 -2.954,1.773 -4.304,3.038c-1.35,1.266 -2.616,2.68 -3.797,4.241c-1.182,1.561 -2.194,3.143 -3.038,4.747l-8.101,38.227l-15.57,0l13.418,-63.29l11.772,-0l-0.633,11.139l0.506,-0c1.097,-1.351 2.384,-2.785 3.861,-4.304c1.477,-1.519 3.185,-2.911 5.126,-4.177c1.941,-1.266 4.114,-2.321 6.519,-3.165c2.405,-0.844 5.127,-1.266 8.165,-1.266c3.797,0 6.835,1.034 9.114,3.102c2.278,2.067 3.417,5.506 3.417,10.316c0,1.266 -0.063,2.616 -0.19,4.051c-0.126,1.434 -0.4,2.995 -0.822,4.683l-9.114,42.911l-15.57,0Z" style="fill:#0f766e;fill-rule:nonzero;"/><path d="M337.351,423.602l15.57,-0l-13.418,63.29l-15.569,0l13.417,-63.29Zm2.532,-17.975c-0,-2.785 0.907,-4.937 2.721,-6.456c1.815,-1.519 4.114,-2.278 6.899,-2.278c2.7,-0 5,0.759 6.899,2.278c1.898,1.519 2.848,3.671 2.848,6.456c-0,2.7 -0.95,4.831 -2.848,6.392c-1.899,1.562 -4.199,2.342 -6.899,2.342c-2.785,0 -5.084,-0.78 -6.899,-2.342c-1.814,-1.561 -2.721,-3.692 -2.721,-6.392Z" style="fill:#0f766e;fill-rule:nonzero;"/><path d="M359.756,423.602l8.228,-0l2.532,-11.899l16.582,-4.684l-3.545,16.583l14.81,-0l-2.911,13.037l-14.683,0l-6.203,28.608c-0.506,2.278 -0.759,4.135 -0.759,5.569c-0,1.857 0.422,3.123 1.265,3.798c0.844,0.675 2.11,1.012 3.798,1.012c1.603,0 3.059,-0.168 4.367,-0.506c1.308,-0.337 2.679,-0.886 4.114,-1.645l-0,11.645c-0.928,0.506 -2.047,0.992 -3.355,1.456c-1.308,0.464 -2.721,0.844 -4.24,1.139c-1.519,0.295 -3.08,0.527 -4.684,0.696c-1.603,0.169 -3.08,0.253 -4.43,0.253c-4.304,0 -7.616,-0.991 -9.937,-2.974c-2.32,-1.983 -3.481,-5 -3.481,-9.051c0,-0.844 0.064,-1.73 0.19,-2.658c0.127,-0.928 0.275,-1.899 0.443,-2.912l7.342,-34.43l-8.481,0l3.038,-13.037Z" style="fill:#0f766e;fill-rule:nonzero;"/><path d="M424.186,459.171l0.127,9.873l0.759,0l3.418,-10l17.215,-35.442l16.582,-0l-30.38,56.834c-2.531,4.726 -4.915,9.072 -7.151,13.038c-2.237,3.967 -4.494,7.384 -6.773,10.253c-2.278,2.87 -4.641,5.106 -7.088,6.709c-2.447,1.604 -5.063,2.405 -7.848,2.405c-3.713,0 -6.498,-0.633 -8.354,-1.898l4.177,-12.405c0.506,0.253 1.033,0.422 1.582,0.506c0.548,0.084 1.076,0.127 1.582,0.127c2.026,-0 4.093,-0.971 6.203,-2.912c2.109,-1.941 4.219,-5.063 6.329,-9.367l-11.899,-63.29l17.848,-0l3.671,35.569Z" style="fill:#0f766e;fill-rule:nonzero;"/><path d="M527.603,398.285l15.443,0l-12.026,57.215c-1.265,6.076 -2.911,11.202 -4.936,15.38c-2.026,4.177 -4.473,7.573 -7.342,10.189c-2.869,2.616 -6.245,4.494 -10.126,5.633c-3.882,1.139 -8.355,1.709 -13.418,1.709c-4.895,0 -9.029,-0.57 -12.405,-1.709c-3.375,-1.139 -6.139,-2.763 -8.291,-4.873c-2.152,-2.11 -3.713,-4.599 -4.684,-7.468c-0.97,-2.87 -1.455,-6.034 -1.455,-9.494c-0,-1.688 0.105,-3.418 0.316,-5.19c0.211,-1.772 0.528,-3.628 0.95,-5.569l11.898,-55.823l16.329,0l-11.645,55.696c-0.675,3.207 -1.013,5.823 -1.013,7.848c0,4.051 1.055,6.92 3.165,8.608c2.109,1.687 5.189,2.531 9.24,2.531c5.063,0 8.987,-1.477 11.772,-4.43c2.785,-2.954 4.895,-7.722 6.329,-14.304l11.899,-55.949Z" style="fill:#0f766e;fill-rule:nonzero;"/><path d="M556.463,399.171c4.051,-0.759 8.144,-1.308 12.279,-1.645c4.135,-0.338 7.848,-0.506 11.139,-0.506c3.882,-0 7.552,0.464 11.012,1.392c3.46,0.928 6.456,2.342 8.988,4.24c2.531,1.899 4.535,4.346 6.012,7.342c1.477,2.996 2.215,6.519 2.215,10.57c0,4.641 -0.696,8.67 -2.088,12.088c-1.393,3.418 -3.228,6.287 -5.507,8.608c-2.278,2.32 -4.873,4.135 -7.784,5.443c-2.912,1.308 -5.886,2.173 -8.924,2.595l4.936,3.924l12.279,33.67l-18.228,0l-12.152,-34.683l-8.734,-1.646l-7.595,36.329l-16.455,0l18.607,-87.721Zm7.975,39.62l6.709,0c2.447,0 4.852,-0.232 7.215,-0.696c2.363,-0.464 4.451,-1.308 6.266,-2.532c1.814,-1.223 3.291,-2.848 4.43,-4.873c1.139,-2.025 1.709,-4.599 1.709,-7.721c-0,-2.87 -0.971,-5.338 -2.912,-7.405c-1.941,-2.068 -5.063,-3.102 -9.367,-3.102c-1.687,0 -3.27,0.064 -4.746,0.19c-1.477,0.127 -2.722,0.275 -3.735,0.443l-5.569,25.696Z" style="fill:#0f766e;fill-rule:nonzero;"/><path d="M663.804,486.892l-53.291,0l18.734,-88.607l16.456,0l-15.57,73.164l36.836,0l-3.165,15.443Z" style="fill:#0f766e;fill-rule:nonzero;"/><path d="M674.184,472.082c1.687,0.928 3.86,1.751 6.519,2.468c2.658,0.718 5.464,1.076 8.417,1.076c2.954,0 5.211,-0.569 6.772,-1.708c1.562,-1.14 2.384,-2.891 2.469,-5.254c-0,-1.687 -0.507,-3.143 -1.519,-4.367c-1.013,-1.223 -2.3,-2.384 -3.861,-3.481c-1.561,-1.097 -3.228,-2.215 -5,-3.354c-1.772,-1.139 -3.439,-2.447 -5,-3.924c-1.561,-1.477 -2.848,-3.228 -3.861,-5.253c-1.012,-2.025 -1.519,-4.473 -1.519,-7.342c0,-2.785 0.549,-5.358 1.646,-7.721c1.097,-2.363 2.637,-4.388 4.62,-6.076c1.983,-1.688 4.388,-2.996 7.215,-3.924c2.827,-0.928 6.013,-1.393 9.557,-1.393c4.895,0 8.945,0.359 12.152,1.076c3.207,0.718 5.738,1.625 7.595,2.722l-4.304,11.898c-1.688,-0.759 -3.734,-1.392 -6.139,-1.898c-2.405,-0.507 -4.916,-0.76 -7.532,-0.76c-2.7,0 -4.831,0.464 -6.392,1.393c-1.561,0.928 -2.342,2.405 -2.342,4.43c0,1.35 0.507,2.553 1.519,3.608c1.013,1.054 2.3,2.13 3.861,3.227c1.561,1.097 3.228,2.216 5,3.355c1.772,1.139 3.439,2.51 5,4.114c1.561,1.603 2.848,3.438 3.861,5.506c1.012,2.067 1.519,4.536 1.519,7.405c-0,7.004 -2.279,12.215 -6.836,15.633c-4.557,3.417 -10.633,5.126 -18.228,5.126c-4.303,0 -8.248,-0.401 -11.835,-1.202c-3.586,-0.802 -6.35,-1.793 -8.291,-2.975l4.937,-12.405Z" style="fill:#0f766e;fill-rule:nonzero;"/><path d="M723.677,478.538c-0,-2.954 0.928,-5.296 2.785,-7.025c1.856,-1.73 4.304,-2.595 7.341,-2.595c3.123,-0 5.612,0.865 7.469,2.595c1.856,1.729 2.785,4.071 2.785,7.025c-0,2.953 -0.929,5.316 -2.785,7.088c-1.857,1.772 -4.346,2.659 -7.469,2.659c-3.037,-0 -5.485,-0.887 -7.341,-2.659c-1.857,-1.772 -2.785,-4.135 -2.785,-7.088Z" style="fill:#14b8a6;fill-rule:nonzero;"/><path d="M772.537,468.158c-0.506,2.447 -0.485,4.262 0.064,5.443c0.548,1.182 1.455,1.772 2.721,1.772c2.363,0 4.599,-0.464 6.709,-1.392l-0.38,11.266c-1.519,0.928 -3.713,1.687 -6.582,2.278c-2.869,0.591 -5.696,0.886 -8.481,0.886c-3.629,0 -6.392,-0.696 -8.291,-2.088c-1.899,-1.393 -2.848,-3.988 -2.848,-7.785c-0,-1.941 0.253,-4.177 0.759,-6.709l15.57,-73.544l15.569,0l-14.81,69.873Z" style="fill:#0f766e;fill-rule:nonzero;"/><path d="M802.537,423.602l15.57,-0l-13.418,63.29l-15.57,0l13.418,-63.29Zm2.532,-17.975c-0,-2.785 0.907,-4.937 2.721,-6.456c1.814,-1.519 4.114,-2.278 6.899,-2.278c2.7,-0 5,0.759 6.899,2.278c1.898,1.519 2.848,3.671 2.848,6.456c-0,2.7 -0.95,4.831 -2.848,6.392c-1.899,1.562 -4.199,2.342 -6.899,2.342c-2.785,0 -5.085,-0.78 -6.899,-2.342c-1.814,-1.561 -2.721,-3.692 -2.721,-6.392Z" style="fill:#0f766e;fill-rule:nonzero;"/><path d="M855.954,486.892l8.355,-39.24c0.506,-2.363 0.759,-4.43 0.759,-6.203c0,-1.856 -0.38,-3.312 -1.139,-4.367c-0.76,-1.054 -2.152,-1.582 -4.177,-1.582c-1.519,0 -3.038,0.38 -4.557,1.139c-1.519,0.76 -2.954,1.773 -4.304,3.038c-1.35,1.266 -2.616,2.68 -3.797,4.241c-1.182,1.561 -2.194,3.143 -3.038,4.747l-8.102,38.227l-15.569,0l13.418,-63.29l11.772,-0l-0.633,11.139l0.506,-0c1.097,-1.351 2.384,-2.785 3.861,-4.304c1.477,-1.519 3.185,-2.911 5.126,-4.177c1.941,-1.266 4.114,-2.321 6.519,-3.165c2.405,-0.844 5.127,-1.266 8.165,-1.266c3.797,0 6.835,1.034 9.114,3.102c2.278,2.067 3.417,5.506 3.417,10.316c0,1.266 -0.063,2.616 -0.19,4.051c-0.126,1.434 -0.4,2.995 -0.822,4.683l-9.114,42.911l-15.57,0Z" style="fill:#0f766e;fill-rule:nonzero;"/><path d="M912.41,460.69l-5.064,-0l-5.443,26.202l-15.569,0l18.734,-88.607l15.569,0l-11.139,52.278l4.684,-1.645l17.848,-25.316l17.341,-0l-18.86,25.442l-7.595,4.81l5.696,4.811l9.62,28.227l-16.709,0l-9.113,-26.202Z" style="fill:#0f766e;fill-rule:nonzero;"/></g><g id="redirected"><path d="M243.061,289.624c-2.616,-0.928 -4.979,-1.392 -7.089,-1.392c-2.954,-0 -5.422,0.78 -7.405,2.342c-1.983,1.561 -3.312,3.565 -3.987,6.012l-0,40.886l-16.456,-0l0,-63.291l12.785,0l1.899,8.355l0.506,-0c1.434,-3.123 3.375,-5.528 5.823,-7.216c2.447,-1.687 5.316,-2.531 8.607,-2.531c2.194,-0 4.684,0.464 7.468,1.392l-2.151,15.443Z" style="fill:#fff;fill-rule:nonzero;"/><path d="M300.655,332.029c-2.532,2.025 -5.97,3.734 -10.316,5.126c-4.346,1.393 -8.967,2.089 -13.861,2.089c-10.211,-0 -17.679,-2.975 -22.405,-8.924c-4.726,-5.949 -7.088,-14.114 -7.088,-24.493c-0,-11.14 2.658,-19.494 7.974,-25.064c5.317,-5.569 12.785,-8.354 22.405,-8.354c3.207,0 6.329,0.422 9.367,1.266c3.038,0.844 5.738,2.236 8.101,4.177c2.363,1.941 4.262,4.557 5.696,7.848c1.435,3.291 2.152,7.384 2.152,12.279c0,1.772 -0.105,3.67 -0.316,5.696c-0.211,2.025 -0.528,4.135 -0.95,6.329l-37.974,-0c0.253,5.316 1.625,9.325 4.114,12.025c2.489,2.7 6.519,4.051 12.089,4.051c3.459,-0 6.561,-0.528 9.303,-1.583c2.743,-1.055 4.831,-2.13 6.266,-3.228l5.443,10.76Zm-23.544,-46.455c-4.304,-0 -7.489,1.286 -9.557,3.86c-2.067,2.574 -3.312,6.013 -3.734,10.317l23.544,-0c0.338,-4.557 -0.359,-8.059 -2.089,-10.507c-1.73,-2.447 -4.451,-3.67 -8.164,-3.67Z" style="fill:#fff;fill-rule:nonzero;"/><path d="M365.591,315.194c0,3.544 0.042,7.088 0.127,10.632c0.084,3.545 0.464,7.469 1.139,11.772l-11.772,0l-2.279,-8.227l-0.506,-0c-1.688,2.953 -4.114,5.337 -7.278,7.151c-3.165,1.815 -6.899,2.722 -11.203,2.722c-7.932,-0 -14.092,-2.616 -18.481,-7.848c-4.388,-5.232 -6.582,-13.418 -6.582,-24.557c0,-10.801 2.447,-19.198 7.342,-25.189c4.894,-5.992 12.067,-8.988 21.519,-8.988c2.616,0 4.768,0.148 6.455,0.443c1.688,0.296 3.376,0.781 5.064,1.456l-0,-25.696l16.455,0l0,66.329Zm-27.974,10.126c3.206,0 5.738,-0.781 7.595,-2.342c1.856,-1.561 3.164,-3.818 3.924,-6.772l-0,-26.835c-1.182,-0.928 -2.49,-1.624 -3.924,-2.089c-1.435,-0.464 -3.292,-0.696 -5.57,-0.696c-4.641,0 -8.122,1.561 -10.443,4.684c-2.321,3.122 -3.481,8.481 -3.481,16.076c0,5.4 0.949,9.746 2.848,13.037c1.899,3.292 4.916,4.937 9.051,4.937Z" style="fill:#fff;fill-rule:nonzero;"/><path d="M379.009,274.181l16.455,0l0,63.291l-16.455,-0l-0,-63.291Zm-2.405,-17.848c-0,-2.447 0.907,-4.536 2.721,-6.265c1.815,-1.73 4.325,-2.595 7.532,-2.595c3.207,-0 5.801,0.865 7.785,2.595c1.983,1.729 2.974,3.818 2.974,6.265c0,2.448 -0.991,4.494 -2.974,6.14c-1.984,1.645 -4.578,2.468 -7.785,2.468c-3.207,-0 -5.717,-0.823 -7.532,-2.468c-1.814,-1.646 -2.721,-3.692 -2.721,-6.14Z" style="fill:#fff;fill-rule:nonzero;"/><path d="M443.945,289.624c-2.616,-0.928 -4.979,-1.392 -7.089,-1.392c-2.953,-0 -5.422,0.78 -7.405,2.342c-1.983,1.561 -3.312,3.565 -3.987,6.012l0,40.886l-16.456,-0l0,-63.291l12.785,0l1.899,8.355l0.506,-0c1.435,-3.123 3.376,-5.528 5.823,-7.216c2.447,-1.687 5.316,-2.531 8.607,-2.531c2.195,-0 4.684,0.464 7.469,1.392l-2.152,15.443Z" style="fill:#fff;fill-rule:nonzero;"/><path d="M501.539,332.029c-2.531,2.025 -5.97,3.734 -10.316,5.126c-4.346,1.393 -8.966,2.089 -13.861,2.089c-10.211,-0 -17.679,-2.975 -22.405,-8.924c-4.725,-5.949 -7.088,-14.114 -7.088,-24.493c-0,-11.14 2.658,-19.494 7.975,-25.064c5.316,-5.569 12.784,-8.354 22.404,-8.354c3.207,0 6.329,0.422 9.367,1.266c3.038,0.844 5.739,2.236 8.102,4.177c2.362,1.941 4.261,4.557 5.696,7.848c1.434,3.291 2.152,7.384 2.152,12.279c-0,1.772 -0.106,3.67 -0.317,5.696c-0.211,2.025 -0.527,4.135 -0.949,6.329l-37.975,-0c0.254,5.316 1.625,9.325 4.114,12.025c2.49,2.7 6.519,4.051 12.089,4.051c3.46,-0 6.561,-0.528 9.304,-1.583c2.742,-1.055 4.831,-2.13 6.265,-3.228l5.443,10.76Zm-23.544,-46.455c-4.304,-0 -7.489,1.286 -9.557,3.86c-2.067,2.574 -3.312,6.013 -3.734,10.317l23.544,-0c0.338,-4.557 -0.358,-8.059 -2.088,-10.507c-1.73,-2.447 -4.452,-3.67 -8.165,-3.67Z" style="fill:#fff;fill-rule:nonzero;"/><path d="M556.855,333.548c-2.531,1.856 -5.59,3.27 -9.177,4.24c-3.586,0.971 -7.278,1.456 -11.076,1.456c-5.063,-0 -9.346,-0.802 -12.848,-2.405c-3.502,-1.603 -6.35,-3.861 -8.544,-6.772c-2.194,-2.912 -3.776,-6.435 -4.747,-10.57c-0.97,-4.135 -1.455,-8.692 -1.455,-13.67c-0,-10.718 2.405,-18.967 7.215,-24.747c4.81,-5.781 11.814,-8.671 21.012,-8.671c4.642,0 8.376,0.38 11.203,1.139c2.827,0.76 5.379,1.73 7.658,2.912l-3.924,13.417c-1.941,-0.928 -3.861,-1.645 -5.76,-2.152c-1.898,-0.506 -4.071,-0.759 -6.519,-0.759c-4.557,-0 -8.016,1.498 -10.379,4.494c-2.363,2.995 -3.545,7.784 -3.545,14.367c0,2.7 0.296,5.189 0.887,7.468c0.59,2.278 1.476,4.261 2.658,5.949c1.181,1.688 2.721,3.017 4.62,3.987c1.899,0.971 4.114,1.456 6.645,1.456c2.785,0 5.148,-0.358 7.089,-1.076c1.941,-0.717 3.671,-1.582 5.19,-2.595l3.797,12.532Z" style="fill:#fff;fill-rule:nonzero;"/><path d="M557.741,274.181l8.734,0l0,-11.898l16.456,-4.684l0,16.582l15.443,0l-0,13.924l-15.443,0l0,24.304c0,4.388 0.443,7.531 1.329,9.43c0.886,1.899 2.553,2.848 5,2.848c1.688,0 3.144,-0.169 4.367,-0.506c1.224,-0.338 2.595,-0.844 4.114,-1.519l2.911,12.658c-2.278,1.097 -4.936,2.025 -7.974,2.785c-3.038,0.759 -6.118,1.139 -9.241,1.139c-5.822,-0 -10.105,-1.498 -12.848,-4.494c-2.742,-2.995 -4.114,-7.911 -4.114,-14.746l0,-31.899l-8.734,0l0,-13.924Z" style="fill:#fff;fill-rule:nonzero;"/><path d="M655.968,332.029c-2.531,2.025 -5.97,3.734 -10.316,5.126c-4.346,1.393 -8.966,2.089 -13.861,2.089c-10.211,-0 -17.679,-2.975 -22.405,-8.924c-4.725,-5.949 -7.088,-14.114 -7.088,-24.493c-0,-11.14 2.658,-19.494 7.975,-25.064c5.316,-5.569 12.784,-8.354 22.404,-8.354c3.207,0 6.329,0.422 9.367,1.266c3.038,0.844 5.739,2.236 8.102,4.177c2.362,1.941 4.261,4.557 5.696,7.848c1.434,3.291 2.152,7.384 2.152,12.279c-0,1.772 -0.106,3.67 -0.317,5.696c-0.211,2.025 -0.527,4.135 -0.949,6.329l-37.975,-0c0.254,5.316 1.625,9.325 4.114,12.025c2.49,2.7 6.519,4.051 12.089,4.051c3.46,-0 6.561,-0.528 9.304,-1.583c2.742,-1.055 4.831,-2.13 6.265,-3.228l5.443,10.76Zm-23.544,-46.455c-4.304,-0 -7.489,1.286 -9.557,3.86c-2.067,2.574 -3.312,6.013 -3.734,10.317l23.544,-0c0.338,-4.557 -0.358,-8.059 -2.088,-10.507c-1.73,-2.447 -4.452,-3.67 -8.165,-3.67Z" style="fill:#fff;fill-rule:nonzero;"/><path d="M720.904,315.194c0,3.544 0.043,7.088 0.127,10.632c0.084,3.545 0.464,7.469 1.139,11.772l-11.772,0l-2.278,-8.227l-0.507,-0c-1.687,2.953 -4.113,5.337 -7.278,7.151c-3.164,1.815 -6.899,2.722 -11.202,2.722c-7.933,-0 -14.093,-2.616 -18.481,-7.848c-4.388,-5.232 -6.582,-13.418 -6.582,-24.557c-0,-10.801 2.447,-19.198 7.341,-25.189c4.895,-5.992 12.068,-8.988 21.519,-8.988c2.616,0 4.768,0.148 6.456,0.443c1.687,0.296 3.375,0.781 5.063,1.456l-0,-25.696l16.455,0l0,66.329Zm-27.974,10.126c3.207,0 5.738,-0.781 7.595,-2.342c1.856,-1.561 3.164,-3.818 3.924,-6.772l-0,-26.835c-1.181,-0.928 -2.489,-1.624 -3.924,-2.089c-1.435,-0.464 -3.291,-0.696 -5.57,-0.696c-4.641,0 -8.122,1.561 -10.443,4.684c-2.32,3.122 -3.481,8.481 -3.481,16.076c0,5.4 0.95,9.746 2.849,13.037c1.898,3.292 4.915,4.937 9.05,4.937Z" style="fill:#fff;fill-rule:nonzero;"/><path d="M762.297,248.865l16.455,0l0,30.38l0.506,-0c1.773,-2.026 4.051,-3.629 6.836,-4.811c2.785,-1.181 5.865,-1.772 9.24,-1.772c7.595,0 13.397,2.595 17.405,7.785c4.009,5.19 6.013,13.101 6.013,23.734c-0,11.392 -2.806,20.042 -8.418,25.949c-5.612,5.907 -13.312,8.861 -23.101,8.861c-5.401,-0 -10.337,-0.443 -14.81,-1.329c-4.472,-0.886 -7.848,-1.878 -10.126,-2.975l-0,-85.822Zm28.227,37.721c-3.038,0 -5.506,0.781 -7.405,2.342c-1.899,1.561 -3.354,3.819 -4.367,6.772l0,27.595c1.35,0.675 2.806,1.139 4.367,1.392c1.561,0.253 3.228,0.38 5,0.38c4.473,-0 7.869,-1.625 10.19,-4.873c2.321,-3.249 3.481,-8.418 3.481,-15.507c-0,-12.067 -3.755,-18.101 -11.266,-18.101Z" style="fill:#fff;fill-rule:nonzero;"/><path d="M849.131,309.751l2.279,9.873l0.759,-0l1.646,-10l9.62,-35.443l16.962,0l-19.241,57.088c-1.603,4.726 -3.143,9.051 -4.62,12.975c-1.477,3.924 -3.101,7.321 -4.873,10.19c-1.772,2.869 -3.734,5.084 -5.886,6.645c-2.152,1.561 -4.705,2.342 -7.658,2.342c-4.388,-0 -7.891,-0.717 -10.507,-2.152l3.038,-13.164c1.266,0.506 2.532,0.759 3.798,0.759c1.941,0 3.818,-0.823 5.633,-2.468c1.814,-1.646 3.185,-4.62 4.114,-8.924l-26.456,-63.291l19.747,0l11.645,35.57Z" style="fill:#fff;fill-rule:nonzero;"/></g><path id="path830" d="M728.88,69.656c-271.34,0 -668.429,119.519 -668.429,319.253c0,137.926 152.237,262.602 465.293,262.602c257.899,0 542.962,-104.728 542.962,-277.064c-0,-160.934 -202.623,-216.481 -320.452,-222.266l0,55.333c131.402,6.92 287.749,71.409 280.512,175.985c-6.617,95.637 -163.935,220.478 -509.29,228.153c-219.779,4.883 -425.326,-95.402 -420.308,-213.762c4.78,-112.729 229.806,-266.227 620.501,-273.239c103.324,-1.855 170.113,20.212 194.594,30.972l13.082,-69.36c0,-0 -76.497,-16.607 -198.465,-16.607Z" style="fill:#14b8a6;fill-rule:nonzero;"/></g></svg>